<?xml version="1.0" encoding="UTF-8"?>
<svg xmlns="http://www.w3.org/2000/svg" width="16" height="16" viewBox="0 0 192 192" role="img" aria-labelledby="title desc">
  <title id="title">Vectorized bear face icon</title>
  <desc id="desc">Vectorized SVG converted from the uploaded PNG. Transparent background, layered vector paths, no embedded raster image.</desc>
  <g id="bear-face">
    <path id="gold-outer-border" fill="#dbae22" d="M 71.5 0 Q 66 0 65.5 1 Q 65 2 63.5 2 Q 62 2 58.5 4 Q 55 6 49.5 11 Q 44 16 39 23 Q 34 30 33.5 31.5 Q 33 33 29.5 36.5 Q 26 40 21 47 Q 16 54 12.5 61.5 Q 9 69 6 81 Q 3 93 3 106 Q 3 119 5.5 128.5 Q 8 138 11 144.5 Q 14 151 18.5 157.5 Q 23 164 31 171.5 Q 39 179 47.5 183.5 Q 56 188 61 189.5 Q 66 191 91 191 Q 116 191 126.5 188.5 Q 137 186 143.5 182.5 Q 150 179 158 171 Q 166 163 173.5 152 Q 181 141 184.5 131.5 Q 188 122 188 120 Q 188 118 188.5 117.5 Q 189 117 189 103.5 Q 189 90 188.5 89.5 Q 188 89 188 86.5 Q 188 84 186 75.5 Q 184 67 180 56.5 Q 176 46 176.5 42 Q 177 38 177.5 37.5 Q 178 37 177 31.5 Q 176 26 174 22.5 Q 172 19 166.5 14 Q 161 9 156.5 7 Q 152 5 146.5 5 Q 141 5 138 6 Q 135 7 130 10 Q 125 13 118 20 Q 111 27 103.5 27 Q 96 27 92.5 18.5 Q 89 10 86 7 Q 83 4 80.5 3 Q 78 2 77.5 1 Q 77 0 71.5 0 Z"/>
    <path id="red-base-outline" fill="#9d3223" d="M 71 10 Q 67 10 62.5 12.5 Q 58 15 54 19 Q 50 23 46.5 28 Q 43 33 42 35.5 Q 41 38 36.5 42.5 Q 32 47 28.5 52 Q 25 57 21 65.5 Q 17 74 15.5 79.5 Q 14 85 13.5 91.5 Q 13 98 12.5 98.5 Q 12 99 12.5 110.5 Q 13 122 15 129 Q 17 136 19 139.5 Q 21 143 21 144 Q 21 145 25 151 Q 29 157 35 163 Q 41 169 44.5 171.5 Q 48 174 53 176.5 Q 58 179 65.5 181 Q 73 183 87.5 183 Q 102 183 102.5 182.5 Q 103 182 111.5 181.5 Q 120 181 128.5 178.5 Q 137 176 143 172 Q 149 168 154.5 162 Q 160 156 165.5 148 Q 171 140 173.5 135 Q 176 130 177.5 125 Q 179 120 179 117.5 Q 179 115 179.5 114.5 Q 180 114 179.5 100 Q 179 86 176.5 75.5 Q 174 65 173 63.5 Q 172 62 169.5 54.5 Q 167 47 166 46 Q 165 45 166.5 42.5 Q 168 40 167.5 34 Q 167 28 162 22.5 Q 157 17 153.5 15.5 Q 150 14 146.5 14 Q 143 14 138.5 16 Q 134 18 130.5 20.5 Q 127 23 123.5 26.5 Q 120 30 117.5 33.5 Q 115 37 113.5 36.5 Q 112 36 100 36 Q 88 36 86.5 29.5 Q 85 23 83.5 19.5 Q 82 16 78.5 13 Q 75 10 71 10 Z"/>
    <path id="cream-face-fill" fill="#f6f0ef" d="M 71 15 Q 68 15 64.5 17 Q 61 19 57.5 22.5 Q 54 26 50.5 31 Q 47 36 45.5 39.5 Q 44 43 42.5 44 Q 41 45 37 49.5 Q 33 54 28 63 Q 23 72 21.5 76.5 Q 20 81 20 82.5 Q 20 84 19.5 84.5 Q 19 85 19 87.5 Q 19 90 18.5 90.5 Q 18 91 18 93.5 Q 18 96 17.5 96.5 Q 17 97 17 106 Q 17 115 17.5 115.5 Q 18 116 18.5 121 Q 19 126 20.5 130.5 Q 22 135 23 136.5 Q 24 138 24 139 Q 24 140 28 146.5 Q 32 153 38.5 159.5 Q 45 166 48 168 Q 51 170 57.5 173 Q 64 176 68.5 176.5 Q 73 177 73.5 177.5 Q 74 178 88 178 Q 102 178 102.5 177.5 Q 103 177 111.5 176.5 Q 120 176 120.5 175.5 Q 121 175 122.5 175 Q 124 175 124.5 174.5 Q 125 174 126.5 174 Q 128 174 131 173 Q 134 172 139.5 168.5 Q 145 165 150.5 159 Q 156 153 161.5 145 Q 167 137 169 133 Q 171 129 172 126 Q 173 123 173 121.5 Q 173 120 173.5 119.5 Q 174 119 174 117 Q 174 115 174.5 114.5 Q 175 114 175 104.5 Q 175 95 174.5 94.5 Q 174 94 173.5 88 Q 173 82 172.5 81.5 Q 172 81 171.5 77 Q 171 73 169.5 69.5 Q 168 66 168 64.5 Q 168 63 167 61.5 Q 166 60 165.5 57.5 Q 165 55 162.5 50.5 Q 160 46 160 44.5 Q 160 43 161.5 41 Q 163 39 163 35.5 Q 163 32 162 30 Q 161 28 157.5 24.5 Q 154 21 151.5 20 Q 149 19 146 19 Q 143 19 136.5 23 Q 130 27 123.5 34.5 Q 117 42 113 42 Q 109 42 108.5 41.5 Q 108 41 96 41 Q 84 41 83 40 Q 82 39 82 35 Q 82 31 80 25 Q 78 19 76 17 Q 74 15 71 15 Z"/>
    <path id="red-line-art" fill="#9d3223" fill-rule="evenodd" clip-rule="evenodd" d="M 65 10 Q 64 10 62 11 Q 60 12 58.5 13.5 Q 57 15 56.5 15 Q 56 15 51 20.5 Q 46 26 46 26.5 Q 46 27 44 29.5 Q 42 32 40.5 35.5 Q 39 39 38 40 Q 37 41 36.5 41 Q 36 41 32 45.5 Q 28 50 28 50.5 Q 28 51 27 52 Q 26 53 25.5 54.5 Q 25 56 24 57 Q 23 58 20.5 63 Q 18 68 18 69 Q 18 70 17.5 70.5 Q 17 71 17 72 Q 17 73 16.5 73.5 Q 16 74 16 75 Q 16 76 15 78 Q 14 80 14 81.5 Q 14 83 13.5 83.5 Q 13 84 13 86 Q 13 88 12.5 88.5 Q 12 89 12 93.5 Q 12 98 11.5 98.5 Q 11 99 11 105.5 Q 11 112 11.5 112.5 Q 12 113 12 117 Q 12 121 12.5 121.5 Q 13 122 13.5 125.5 Q 14 129 15.5 132 Q 17 135 17 136 Q 17 137 19.5 142 Q 22 147 23 148 Q 24 149 24 149.5 Q 24 150 25 151 Q 26 152 27 154 Q 28 156 34 162 Q 40 168 40.5 168 Q 41 168 44 170.5 Q 47 173 52 175.5 Q 57 178 58 178 Q 59 178 61 179 Q 63 180 64.5 180 Q 66 180 66.5 180.5 Q 67 181 69.5 181 Q 72 181 72.5 181.5 Q 73 182 87 182 Q 101 182 101.5 181.5 Q 102 181 106.5 181 Q 111 181 111.5 180.5 Q 112 180 115.5 180 Q 119 180 119.5 179.5 Q 120 179 121.5 179 Q 123 179 123.5 178.5 Q 124 178 125.5 178 Q 127 178 127.5 177.5 Q 128 177 130.5 176.5 Q 133 176 137 174 Q 141 172 142 171 Q 143 170 143.5 170 Q 144 170 146 168 Q 148 166 148.5 166 Q 149 166 153.5 161 Q 158 156 158 155.5 Q 158 155 161 151.5 Q 164 148 165.5 145 Q 167 142 169 139.5 Q 171 137 173 133 Q 175 129 175 128 Q 175 127 175.5 126.5 Q 176 126 176 124.5 Q 176 123 176.5 122.5 Q 177 122 177 120.5 Q 177 119 177.5 118.5 Q 178 118 178 115.5 Q 178 113 178.5 112.5 Q 179 112 179 103 Q 179 94 178.5 93.5 Q 178 93 178 89.5 Q 178 86 177.5 85.5 Q 177 85 177 83 Q 177 81 176.5 80.5 Q 176 80 176 78 Q 176 76 175.5 75.5 Q 175 75 174.5 71.5 Q 174 68 173.5 67.5 Q 173 67 173 66 Q 173 65 172.5 64.5 Q 172 64 172 63 Q 172 62 171.5 61.5 Q 171 61 170.5 58.5 Q 170 56 169 54.5 Q 168 53 168 52 Q 168 51 166 47.5 Q 164 44 164 43.5 Q 164 43 165.5 41 Q 167 39 167 34.5 Q 167 30 165.5 27 Q 164 24 160.5 20.5 Q 157 17 156.5 17 Q 156 17 154 15.5 Q 152 14 150.5 14 Q 149 14 148.5 13.5 Q 148 13 145 13 Q 142 13 141.5 13.5 Q 141 14 140 14 Q 139 14 136 15.5 Q 133 17 129.5 20 Q 126 23 125.5 23 Q 125 23 122.5 25.5 Q 120 28 120 28.5 Q 120 29 117 32.5 Q 114 36 110.5 36 Q 107 36 106.5 35.5 Q 106 35 96.5 35 Q 87 35 86.5 34.5 Q 86 34 86 32 Q 86 30 85.5 29.5 Q 85 29 85 27.5 Q 85 26 84.5 25.5 Q 84 25 83.5 22.5 Q 83 20 81.5 17 Q 80 14 78 12 Q 76 10 75 10 Q 74 10 73.5 9.5 Q 73 9 70 9 Q 67 9 66.5 9.5 Q 66 10 65 10 Z M 62 15.5 Q 65 13 66 13 Q 67 13 67.5 12.5 Q 68 12 70 12 Q 72 12 73 12.5 Q 74 13 76 15 Q 78 17 78.5 18 Q 79 19 79 20 Q 79 21 80 22.5 Q 81 24 81 25.5 Q 81 27 81.5 27.5 Q 82 28 82 29.5 Q 82 31 82.5 31.5 Q 83 32 83 35 Q 83 38 90 38 Q 97 38 97.5 38.5 Q 98 39 107 39 Q 116 39 120 34.5 Q 124 30 124 29.5 Q 124 29 125 28 Q 126 27 126.5 27 Q 127 27 129.5 24.5 Q 132 22 138 19 Q 144 16 145.5 16 Q 147 16 147.5 16.5 Q 148 17 149 17 Q 150 17 152 18 Q 154 19 157.5 22.5 Q 161 26 161 26.5 Q 161 27 162 28 Q 163 29 163 30 Q 163 31 163.5 31.5 Q 164 32 164 34.5 Q 164 37 162.5 39 Q 161 41 160.5 42.5 Q 160 44 161 45 Q 162 46 162.5 47 Q 163 48 163 49 Q 163 50 164.5 52.5 Q 166 55 166 56 Q 166 57 166.5 57.5 Q 167 58 167 59 Q 167 60 167.5 60.5 Q 168 61 168 62 Q 168 63 168.5 63.5 Q 169 64 169 65 Q 169 66 170 68 Q 171 70 171 71.5 Q 171 73 171.5 73.5 Q 172 74 172 75.5 Q 172 77 172.5 77.5 Q 173 78 173 80 Q 173 82 173.5 82.5 Q 174 83 174 85.5 Q 174 88 174.5 88.5 Q 175 89 175 93.5 Q 175 98 175.5 98.5 Q 176 99 176 103 Q 176 107 175.5 107.5 Q 175 108 175 112 Q 175 116 174.5 116.5 Q 174 117 174 119 Q 174 121 173.5 121.5 Q 173 122 172.5 124.5 Q 172 127 169.5 132 Q 167 137 166 138 Q 165 139 165 139.5 Q 165 140 164 141 Q 163 142 162 144 Q 161 146 158 149.5 Q 155 153 155 153.5 Q 155 154 150.5 159 Q 146 164 145.5 164 Q 145 164 141.5 167 Q 138 170 135 171.5 Q 132 173 131 173 Q 130 173 128 174 Q 126 175 124.5 175 Q 123 175 122.5 175.5 Q 122 176 120 176 Q 118 176 117.5 176.5 Q 117 177 113.5 177 Q 110 177 109.5 177.5 Q 109 178 103 178 Q 97 178 96.5 178.5 Q 96 179 85.5 179 Q 75 179 74.5 178.5 Q 74 178 71.5 178 Q 69 178 68.5 177.5 Q 68 177 66.5 177 Q 65 177 64.5 176.5 Q 64 176 61.5 175.5 Q 59 175 54 172.5 Q 49 170 46 167.5 Q 43 165 42.5 165 Q 42 165 36.5 159.5 Q 31 154 31 153.5 Q 31 153 29.5 151.5 Q 28 150 28 149.5 Q 28 149 27 148 Q 26 147 25.5 145.5 Q 25 144 24 143 Q 23 142 22 140 Q 21 138 21 137 Q 21 136 20 134.5 Q 19 133 19 132 Q 19 131 18 129 Q 17 127 17 125.5 Q 17 124 16.5 123.5 Q 16 123 16 121 Q 16 119 15.5 118.5 Q 15 118 15 105 Q 15 92 15.5 91.5 Q 16 91 16 88.5 Q 16 86 16.5 85.5 Q 17 85 17 83.5 Q 17 82 17.5 81.5 Q 18 81 18 79.5 Q 18 78 18.5 77.5 Q 19 77 19.5 74.5 Q 20 72 23.5 65 Q 27 58 28 57 Q 29 56 30 54 Q 31 52 33.5 49.5 Q 36 47 36 46.5 Q 36 46 37 45.5 Q 38 45 40 43 Q 42 41 42 40 Q 42 39 42.5 38 Q 43 37 44 36 Q 45 35 45 34.5 Q 45 34 46 33 Q 47 32 48 30 Q 49 28 53.5 23 Q 58 18 58.5 18 Q 59 18 62 15.5 Z M 57.5 140.5 Q 57 141 57 142 Q 57 143 58 144 Q 59 145 66 145 Q 73 145 75 144 Q 77 143 80.5 139.5 Q 84 136 85 136 Q 86 136 86.5 137 Q 87 138 89 140 Q 91 142 91.5 142 Q 92 142 95.5 145 Q 99 148 100 148 Q 101 148 101.5 148.5 Q 102 149 107 149 Q 112 149 115 147.5 Q 118 146 118 145 Q 118 144 117 143 Q 116 142 115 142.5 Q 114 143 113 143 Q 112 143 111.5 143.5 Q 111 144 107.5 144 Q 104 144 102 143 Q 100 142 98.5 140.5 Q 97 139 96.5 139 Q 96 139 93 136 Q 90 133 90 132.5 Q 90 132 89 131 Q 88 130 88 127.5 Q 88 125 89.5 123.5 Q 91 122 91.5 122 Q 92 122 92.5 121 Q 93 120 93 116.5 Q 93 113 92 112 Q 91 111 91 110.5 Q 91 110 90 109.5 Q 89 109 88 109 Q 87 109 86.5 108.5 Q 86 108 84.5 108 Q 83 108 82 108.5 Q 81 109 79.5 110.5 Q 78 112 78 113 Q 78 114 77.5 114.5 Q 77 115 77 116.5 Q 77 118 78 120 Q 79 122 81 123 Q 83 124 83 126.5 Q 83 129 78 134 Q 73 139 72 139.5 Q 71 140 64.5 140 Q 58 140 57.5 140.5 Z M 140 55.5 Q 139 55 134 55 Q 129 55 128.5 55.5 Q 128 56 127 56 Q 126 56 123.5 58 Q 121 60 120.5 61 Q 120 62 120 63 Q 120 64 119.5 64.5 Q 119 65 119 68.5 Q 119 72 120.5 74 Q 122 76 122 76.5 Q 122 77 122.5 77 Q 123 77 124 78 Q 125 79 126 79 Q 127 79 127.5 79.5 Q 128 80 129.5 80 Q 131 80 131.5 79.5 Q 132 79 133 79 Q 134 79 136 78 Q 138 77 141 74.5 Q 144 72 144.5 71 Q 145 70 145 66.5 Q 145 63 144.5 62.5 Q 144 62 144 60.5 Q 144 59 142.5 57.5 Q 141 56 140 55.5 Z M 51 55 Q 48 55 47 56 Q 46 57 45.5 57 Q 45 57 44.5 58 Q 44 59 42.5 60.5 Q 41 62 41 67 Q 41 72 42 74 Q 43 76 44 77 Q 45 78 46 78.5 Q 47 79 48 79 Q 49 79 49.5 79.5 Q 50 80 52 80 Q 54 80 54.5 79.5 Q 55 79 56 79 Q 57 79 58.5 77.5 Q 60 76 60.5 75 Q 61 74 61 69 Q 61 64 59.5 61 Q 58 58 57 57 Q 56 56 55 55.5 Q 54 55 51 55 Z"/>
  </g>
</svg>
