<svg version="1.0" xmlns="http://www.w3.org/2000/svg" width="16" height="16" viewBox="0 0 724 723"><path fill="white" d="M191.2 85.8c-1.7.3-2.2.8-1.8 2 .5 1.5.4 1.5-.8-.1-1.4-1.9-4.6-2.3-4.6-.6 0 .5.5.7 1.2.3.7-.5.8-.3.3.6-.6 1-1.1 1-2-.3-1.5-2.1-3.9-2.2-3.1-.2.3.8.2 1.5-.3 1.5s-1.4-.7-2.1-1.5c-1.4-1.6-7-2.1-7-.6 0 .6-1.2.6-2.9.1-1.6-.4-3.2-.5-3.6-.2-.3.3-2.4.5-4.5.3-2.2-.1-4.4 0-5 .4-.6.4-5 .9-9.8 1.1-12.9.7-16.5 1-18.4 1.9-1.2.5-1.8.3-1.8-.6 0-1.1-.2-1.1-1 .1-.5.8-.5 1.9 0 2.5.4.6.2 1.5-.5 2.2-.9.8-1.6.9-2 .3-.3-.6-.2-1 .4-1 .5 0 .9-.8.8-1.8-.1-1.3-1-1.8-3.9-1.9-2.1-.1-3.8.1-3.8.5s-4.4.7-9.7.6c-5.4-.1-10.3.3-11 .8-.7.5-1.4.5-1.8-.2-.8-1.3-6.2-1.3-7.1.1-.4.8-.9.7-1.5-.2-.7-1.1-.9-1.1-.9-.1 0 .9-.5 1-1.8.3-1.1-.6-2.4-.6-3.2-.1-.9.5-1.9.5-2.7-.2-.9-.7-1.9-.6-3.5.4-1.3.8-3.2 1.3-4.3 1.1-5.4-1.3-9.5-1.4-9.5-.4 0 .7-.8.8-2.5.1-1.6-.6-2.7-.6-3.1.2-.5.7-1.1.5-2-.7-1.1-1.4-1.6-1.6-2.8-.6-.8.7-1.7.8-2 .3-.4-.6-2.1-.7-4.3-.2-2 .5-4.1.6-4.6.3-.6-.3-.7-.1-.3.5.3.6.2 1.3-.4 1.7-.5.3-1 1.1-1 1.6 0 .6.5.7 1.2.3.8-.5.9-.2.4 1.2-.9 2.3-.9 2.1-.7 6.2.1 1.9.5 3.1 1.1 2.7.6-.3 1-.1 1 .4 0 .6-.4 1.1-.9 1.1-1.5 0-1.8 6-.4 7.8 1.3 1.5 1.3 1.5.4-.5-.8-1.6-.7-2.2.4-2.6 1-.4 1.2-.1.8 1-.5 1.3-.2 1.5 1.3.9 1.4-.5 1.2 0-.9 2.2-1.5 1.6-2.9 3.9-3 5.1-.1 1.1-.4 2.1-.8 2.1-.8 0-.6 12.1.3 13.5.4.6.3 1.7-.3 2.5-1.2 2.1-1.1 3.3.3 2.4.8-.5.9 0 .4 1.7-1.2 3.6-1.5 37.8-.4 38.5.5.3.4 1.1-.2 1.9-.8.9-.8 1.5 0 2 .5.3 1 1.1 1 1.6 0 .6-.4.8-.9.5-.5-.4-1.1 0-1.4.6-.5 1.8.3 4.8 1.4 4.8 1.6 0 1 2.9-.8 3.9-1 .6-1.3 1.1-.8 1.1.7 0 1 2.6.8 6.7-.5 11.4-.5 13.6-.2 19 .2 2.9 0 5.1-.6 5-1.1-.2-1.3 3-.3 6 .4 1.2.3 2.5-.1 2.8-1.2.7-1.9 6.5-.8 6.5.5 0 .6 1.2.2 2.7-1 3.5-1 6.3 0 8.5.4 1.1.3 1.8-.3 1.8-1.2 0-.3 4.2 1.2 5.3.7.6.4.7-.6.3-2.2-.7-3.3 1-1.2 1.8.8.3 1.3 1 1 1.5-.3.5.2 1.2 1.2 1.6 1.6.6 1.5.8-.4 2.4-1.9 1.5-2.1 2.6-1.9 8.7.2 3.8-.2 7.5-.8 8.2-.8 1-.7 1.6.1 2.1.6.3.9 2.1.7 3.9-.2 1.7 0 3.4.6 3.7.6.4.5 1.3-.1 2.5-.5 1-.7 3.8-.4 6.2.3 2.4.7 5.5.9 7.1.1 1.5.8 3.4 1.5 4.2 1 1.2.8 1.4-.9 1-1.8-.3-2 0-1.6 2.2.2 1.5.9 3 1.6 3.3.8.6.8.9 0 1.4-.8.5-.8 1.3-.1 2.6 1.1 2 .8 7.1-.5 10.1-.3 1-.2 2 .3 2.3.5.3.7 1.6.5 3-.3 1.3 0 2.7.6 3 .7.5.7 1.5 0 3.3-1 2.7-.4 6.3 1.2 6.3.5 0 .9.7.9 1.6 0 .9-.5 1.2-1.1.8-.9-.5-1 .4-.4 3.2.5 2.1.8 5.1.7 6.6-.1 1.5.3 3 .8 3.3.6.4.5 1.3-.2 2.4-.7 1.2-.8 3.6-.2 7.7.9 6 .9 6.5 0 11.8-.3 1.7.2 3.9 1.1 5.2.9 1.4 1.1 2.4.5 2.4-1.5 0-1.3 9 .2 9 .6 0 .2.7-.8 1.5-1.5 1.2-1.7 1.7-.7 2.9.9 1.1 1 2 .1 3.6-.6 1.1-.9 2.4-.6 2.8.6 1 .6 5.2.3 16.9-.1 4.6 0 8.3.3 8.3s.6 1.6.7 3.5c.2 2-.2 3.5-.8 3.5-.6 0-.7.5-.2 1.2 1 1.7 1.1 2.7.2 6-.4 1.5-.3 3 .2 3.3.5.4.5 1.3-.1 2.4-.6 1.2-.5 2.2.2 2.9.8.8.7 1.9-.2 4.1-1 2.6-1 3.3.4 4.6 1.8 1.8 2.1 3 .7 2-.5-.3-1.3.5-1.7 1.7-.4 1.3-.2 2.4.5 2.6.6.2 1.1.8 1.1 1.3 0 .6-.4.8-.8.5-.5-.3-.9.8-1 2.4 0 2.2.4 3 1.6 3 1.1 0 1.3.3.5.8-.6.4-1 2.6-.8 5.4.2 2.6-.1 5-.6 5.4-.5.3-.5 1.2 0 2.2.9 1.8.7 8.9-.3 10-.3.3.1 1.6.9 2.8 1.1 1.7 1.2 2.5.3 3-.7.5-.8.3-.3-.6.5-.8.4-1.1-.3-.6-.7.4-.8 1.7-.2 3.6.5 1.9.5 3-.1 3s-.9 1-.7 2.3c.2 1.2.9 2.1 1.6 1.9.8-.1 1.1.2.7.8-.3.6-1.2.7-1.8.4-.9-.5-.9-.4 0 .6.7.8.9 2 .3 3.5-.6 1.5-.4 3.1.5 4.9 1.1 2.1 1.1 2.8.1 3.9-.7.7-1.3 3.8-1.3 7.2 0 3.3-.4 7.7-.8 9.7-.5 2.9-.4 3.9.7 4.3 1.4.6 2.1 3.5.8 3.5-.4 0-.7.6-.7 1.2-.1.7-.4 3.3-.6 5.7-.6 4.8 0 7.4 1.4 6.5.5-.3.9 0 .9.5 0 .6-.7 1.1-1.5 1.1-1.1 0-1.2.5-.5 2.6 1.3 3.4 1.3 4.7-.2 3.8-.8-.5-.9-.2-.3 1.2.4 1 .9 4.4 1 7.4.3 6.4 1.2 9 3.1 9 1.5 0 5.4 3.5 5.4 4.8 0 1.3 5.8 6.6 7.5 6.8.8.1 1.5-.4 1.5-1.1 0-.7 1-1.2 2.2-1.1 1.3.1 2.2.7 2.1 1.4-.4 1.7 3.4 3.5 4.3 2 .5-.7.3-.8-.6-.3-.9.5-1.1.4-.6-.4.9-1.4 2.9-.3 2.3 1.3-.5 1.3 6.1 1.5 8.1.2.7-.4 2.5-.5 3.8-.2 1.7.5 2.3.3 1.9-.4-.9-1.5 1.1-1.2 2.4.4.9 1 3.4 1.3 10.9 1 12.2-.6 13.1-.7 12.6-1.5-.2-.4.3-1.2 1-1.9 1.2-.9 1.7-.7 2.5.8.9 1.7 2 1.9 8.1 1.8 5.2-.1 7.6-.7 9.2-2 1.9-1.6 2-1.7 1.5-.1-.6 1.3-.2 1.6 2.1 1.4 1.5-.2 3.3 0 4 .5 1.2.7 7.1.4 15.7-.9 2.4-.4 2.6-.3 1 .4l-2 1 2 .1c1.1.2 2.3.2 2.8.1.4 0 .7.3.7.8 0 1 7.7 2 9.8 1.3.6-.2 1.2-1 1.2-1.8s.5-1.4 1-1.4c1 0 1.4 1.5 1.1 3.4-.1.5.5.4 1.3-.4 1.4-1.1 1.6-.9 1.7 1.1.1 2.3.1 2.2 1.4-.6 1.4-2.9 1.5-2.9 2.1-.8.7 2.5.7 2.5 7.7 2.8 4 .2 4.7 0 4.3-1.2-.5-1.1-.2-1.3 1-.9.8.3 1.8.6 2 .6.2 0 .4.7.4 1.5s.9 1.5 2 1.5 2-.4 2-1 .9-.6 2.3-.1c2 .8 21.2.8 24.2.1.6-.1 1.2-.2 1.5-.1.3.2 13.1.4 28.4.7 21.7.3 28.2.1 28.8-.9.6-.9.8-.9.8 0 0 1.6 8.8 1.4 10.9-.1 1.1-.8 1.3-.8.8 0s4.2 1.1 16.6 1.1c9.4 0 17.6-.2 18-.4.4-.3.4-1 0-1.7s-.1-.4.9.6c1.9 2.1 6.3 1.9 6.3-.3 0-.7.9-1.5 1.9-1.7 1.4-.3 1.7 0 1.3 1.2-.7 1.8-.2 2.1 5.6 3.1 2.6.4 3.7.3 3.2-.4-.4-.8.1-.8 1.7-.2 1.3.4 4.5.7 7.1.5l4.8-.3 2 4.7c1.1 2.6 2.7 6 3.5 7.6.8 1.6 1.4 3.5 1.4 4.2 0 .8.9 1.9 2 2.6 1.1.7 2 1.6 2 2.1 0 .4-.4.6-.8.3-.4-.2.4 3.2 1.9 7.7s3.1 8.1 3.6 8c.5-.1 1.5 1.8 2.2 4.3.7 2.4 1.8 4.1 2.3 3.8.6-.4.8.1.4 1.3s.1 3 1.2 4.4c.9 1.3 2.4 3.6 3.2 5.2.9 1.9 1.7 2.4 2.4 1.7.5-.5 1.7-1 2.5-1 1.1 0 1 .4-.5 1.5-1.9 1.4-1.9 1.4.3 1.5 1.2 0 2.5-.5 2.8-1 .3-.6 1.1-1 1.6-1 .6 0 .8.4.5.8-.3.5 1 .9 2.9.9s3.5-.4 3.5-.9c0-.4.7-.8 1.5-.8 2.1 0 1.4-4.5-1.6-9.9-3.9-7.1-4.5-8.1-6.8-10.7-1.1-1.3-2.1-3.3-2.1-4.3 0-1.1-.5-2.3-1.1-2.6-.6-.4-.8-1.3-.5-2.1.3-.8-.1-1.4-.9-1.4s-1.9-.9-2.5-2c-.8-1.5-.8-2 .2-2 .8 0 .9-.3.3-.8-.5-.4-1.2-1.8-1.4-3.2-.1-1.4-.8-2.8-1.5-3.2-.6-.4-.7-.8-.3-.8.5 0-.1-1.4-1.3-3-1.2-1.7-1.9-3.8-1.6-4.6.3-.9-.5-2.5-2.1-4l-2.6-2.4 3.9-.2c2.1 0 8-.2 12.9-.3 5-.1 9.5-.3 10-.5.6-.1 1.2-.1 1.5 0 1.4.6 12.3.4 12.6-.2.3-.4 1.6-.2 3 .4 2.2 1 2.8.9 4-.7 1.2-1.7 1.4-1.7 1.4-.2s1 1.7 6.5 1.5c3.6-.2 6.5-.7 6.5-1.2 0-.4.7-.6 1.5-.2 1.9.7 6.5-1.3 6.5-2.8 0-.6.5-.4 1 .5 1.1 1.9 5.6 1.4 8.3-.9 1.6-1.4 1.7-1.4 1.2.1-.6 1.4-.1 1.5 3.2 1 6.8-.9 11.4-2.4 10.8-3.3-.4-.6-.1-1 .4-1 .6 0 1.1.4 1.1.8 0 .5 1.7.7 3.8.6 2-.2 6.6-.5 10.2-.8 11.5-.7 17-1.8 17-3.2 0-1.7 2.7-1.8 3.2-.2.6 1.7 18.6 1.8 26.5.2 3.2-.6 6-.8 6.3-.4.8 1.1 9.2 1.1 8.5 0-.3-.6.1-1 .9-1 .9 0 1.6.4 1.6.8 0 .5 3.7.8 8.3.7 10.9-.3 10.5-.2 11-2.2.4-1.5.5-1.5.6.2.1 1.8.8 2 8 2 4.4.1 7.7-.3 7.5-.7-.3-.4.9-.2 2.6.3 1.7.6 3.8.8 4.8.4 2.4-1.1 5.7-1 5.6.1-.1.5-.5 1.8-.8 3-.5 1.8-.2 2.1 2.1 2.2 1.6 0 4.4.4 6.3.7 3.5.6 3.5.6 5.3-4.6 1.1-2.8 1.5-5.4 1-5.8-1-.7-1-1.9.1-4.1.8-1.8.4-4.9-.8-6.9-.6-1-.5-1.2.2-.7.8.5 1 .1.5-1.1-.4-1-.6-3.3-.5-5.3.2-4.8-.8-9.1-1.9-8.4-1.6.9-1-.8.7-2 1.2-.9 1.3-1.7.4-4-.6-1.6-1-4.5-1-6.5 0-5.6-.2-7.5-1.1-8.7-.6-.7-.2-1.1.9-1.1.9 0 2.3.9 3 1.9.7 1 1.7 1.6 2.2 1.3.4-.3 1.5.6 2.4 2 1 1.5 2.6 2.5 4.1 2.5 1.6 0 2.3.4 1.9 1.3-.5 1.5 1.2 3.3 3.5 3.9.8.2 2.5 1.4 3.8 2.7 1.8 1.9 2.9 2.2 6 1.7 2.1-.3 3.2-.3 2.6 0-1.5.7-1.7 3.4-.3 3.4.6 0 1-.5 1-1 0-.6 1.1-.8 2.5-.6 1.3.3 2.7 0 3.1-.5.3-.5 1.4-.7 2.4-.4 1.1.4 2.3-.2 3.3-1.8 1.3-2 1.3-2.6-.2-5.5-1.3-2.5-1.9-3-2.9-2-.9.9-1.2.8-1.2-.5 0-.9-.6-1.7-1.4-1.7-.7 0-1.6-.9-1.9-2-.3-1.1-1.3-2-2.2-2-.9 0-2.8-1.4-4.2-3.1-1.5-1.7-3.2-2.8-4-2.5-.8.3-1.2.2-.8-.3.9-1.5-2.6-4.3-4.7-3.8-1.5.4-1.8.1-1.3-1.3.4-1.2-.1-2-1.7-2.5-1.3-.4-2.6-.7-3-.6-.5.1-.8-.6-.8-1.4 0-.8-.8-1.5-1.7-1.5-1.5 0-1.6-.2-.3-1 1-.7 1.1-1 .3-1.1-.7-.1-1.8-.2-2.4-.3-.6 0-1.6-.9-2.3-1.8-.7-1-1.5-1.5-1.8-1.3-.6.7-3.6-2.6-4-4.5-.2-.8-.7-1.8-1.2-2.2-.6-.4-.5-1.3.3-2.1 1.5-1.9 1.2-21.8-.4-22.9-.6-.5-.5-.8.3-.8.6 0 1.2-.9 1.2-2.1 0-1.2-.4-1.7-1.1-1.4-.6.4-.5-.2.2-1.3 1-1.7 1-2.3-.4-3.7-2-1.9-2.3-3.2-.4-1.7.9.8 1.2.4 1.2-1.8 0-1.8-.4-2.6-1.2-2.3-.7.3-1.3.1-1.3-.5s.5-1.2 1.2-1.4c.7-.3 1.1-2.4 1-5.9-.4-8.6-.3-10.2.1-14.4.5-5.2-.2-7.5-2.2-7.5-1.4-.1-1.4-.2.1-1.4 1-.7 1.5-1.6 1.1-2-1.2-1.2-1-6 .5-9.5.7-1.9 1-3.7.5-4-.9-.7-1.1-5.6-.3-6.5.3-.2.3-3.5 0-7.1-.3-3.6-.3-7 .1-7.6 1.1-1.8.1-12.4-1.4-15.3-1.3-2.3-1.3-3.4-.4-5 1.1-2.1 2.7-13.6 1.8-13.6-.2 0-1 .8-1.8 1.7-.8 1-1.1 1.1-.7.3 1.6-2.9 2.3-18.4 1.1-22.5-.3-1.1-.6-2.5-.7-3 0-.6-.7.1-1.5 1.5-1.4 2.4-1.4 2.4-1.5.3 0-1.3.8-2.4 2.1-2.8 1.4-.5 1.9-1.3 1.6-2.6-.3-1-.1-1.9.3-1.9.9 0 .1-3.9-1.1-5.5-.4-.6-.4-2.8.1-5 .5-2.1.5-4.6.1-5.4-.5-.9-.9-6.8-1-13.1-.1-14.4-.8-18.3-3-17.6-1.4.5-1.4.5-.1-.6.8-.7 1.6-2.6 1.7-4.1.2-2.3-.1-2.7-1.4-2.2-1.4.5-1.4.3.2-1.5 1.4-1.5 2.1-1.7 3.2-.9 1 .9 1.3.8 1.3 0 0-1.3 3.4.2 5.7 2.4.7.8 3.1 1.1 5.7 1 2.5-.2 4.8.1 5.2.6.3.5 1 .6 1.6.3.6-.4.8-.2.4.4-.9 1.5 1.2 2.6 2.7 1.4.8-.7 1.8-.6 3.1.4 1 .7 2.3 1.1 2.7.8.5-.3 2 .3 3.4 1.2 1.4.9 3.2 1.4 4 1 .9-.3 2.7.2 4.1 1 1.3.9 2.7 1.4 3 1.1.3-.3 1.7.1 3.2.9 2.3 1.2 2.8 1.2 3.2-.2.5-1.2.9-1.1 2.9.7 1.3 1.2 3.5 2.3 4.9 2.5 4.9.5 10.7 1.6 12.2 2.1.8.3 2 .7 2.6.8.5.2 3 1.2 5.4 2.4 2.4 1.1 5.8 2.1 7.6 2.1 1.8 0 3.6.4 3.9 1 .9 1.4 4.5 1.2 4.5-.3 0-.9.2-.9.8 0 .5.8 2.4 1 5.7.7 2.8-.4 5.6-.6 6.3-.7.6 0 1.2-.3 1.3-.6 0-.3.2-1.7.4-3.1.4-3.1-1.4-7-3.2-7-.7 0-1.3-.5-1.3-1 0-.6-.8-1.9-1.8-3-1.4-1.5-2.8-1.9-6.7-1.6-2.8.2-5.5 0-6.1-.5-1.7-1.4-8.6-1.9-10.6-.8-1.2.7-1.8.6-1.8-.2 0-.6-.7-.9-1.4-.6-.9.4-1.7-.1-2.1-1.2-.7-2.2-3.6-2.3-5.3-.2-1.1 1.4-1.1 1.4-.6-.1.6-1.8-2.7-4.3-4.1-3-.5.4-.5.2-.2-.4 1.1-1.9-4-3.4-12-3.7-1.8 0-3-.4-2.7-.8.4-.7-6.6-2.5-7.5-2-.2.2-.8-.3-1.3-1.1-.7-1-1.1-1-1.5-.1-.2.7-.9 1.3-1.4 1.3-.6 0-.7-.6-.3-1.3.5-.8.2-.8-.9.2-.9.7-1.7.9-1.7.4 0-1.3-4.9-3.5-6.1-2.8-.5.4-.9.1-.9-.5s-1.1-.8-2.5-.6c-1.6.3-2.5 0-2.5-.8 0-.9-.9-1.2-2.6-.8-1.4.2-2.9 0-3.3-.7-.4-.6-2.5-1.2-4.7-1.3-2.1 0-4.7-.7-5.6-1.5-.9-.8-2.1-1.2-2.7-.9-.5.4-1.2.2-1.6-.4-.4-.6-1-.8-1.4-.6-1.7 1.1-3.2-1.4-3.4-5.5-.1-2.4-.9-5-1.7-5.7-1-.9-1.1-1.1-.1-.6 1.1.5 1.3 0 .9-2.4-.2-1.7-.1-2.9.4-2.6.4.3.8 0 .8-.5 0-.6-.5-1.1-1.1-1.1-.6 0-.9-.7-.5-1.5.3-1-.1-1.5-1.2-1.6-1.4 0-1.4-.2-.2-.7 1.6-.7 2.1-2.7 2-7.7-.1-6.9-.6-10-1.5-10.7-.7-.5-.7-.8 0-.8 1.1 0 1.4-5.4.3-6.5-.3-.4-.2-2 .2-3.6.8-2.6.6-3.1-1.2-3.8-1.7-.6-1.8-.9-.6-1.4 1.6-.6 1.6-.4.5-19-.2-2.8-.9-5.2-1.8-5.8-1.1-.7-1.1-.9.4-.9.9 0 1.7-.5 1.7-1.1 0-.5-.4-.8-.9-.4-.5.3-1.2.1-1.6-.5-.3-.5-.2-1 .3-1 1.1 0 .8-6.2-.3-8-.3-.5-.2-1 .4-1 .6 0 .9-9.4.8-26.9-.1-15.3-.5-26.4-1-25.8-.5.7-.6.4-.2-.8 1.7-4.6.7-9.4-1.6-7.9-.5.3-1.7 0-2.6-.6-1.5-.9-1.5-1.1-.2-.7 1.3.4 1.6 0 1.2-1.6-.5-1.7-.3-2 .7-1 1.4 1.3 4.3.6 3.4-.8-.3-.5-.9-.7-1.4-.4-1 .6-.8-1.5.3-3.2 1.1-1.7.7-12.5-.6-15.6-1.3-3-2.1-3.2-5.4-1.4-2.1 1.2-2.2 1.4-.8 4.1 1.2 2.3 1.3 2.7.1 2.3-.9-.4-1.3 0-1.1 1.1.2.9.4 2.3.4 3.1.1.9.9 1.1 2.4.8 2.1-.6 2.1-.5-.4 1.7-2.1 1.8-2.3 2.4-1.2 3.4 1.8 1.7 1.7 3.6-.2 2.8-.8-.3-1.5-.1-1.5.4 0 .6.5 1 1 1 .7 0 .8.6.2 1.6-1.3 2.3-.3 5.4 1.7 5.5 1.1 0 .9.3-.6.9-2.6 1.1-2.7 1.4-1.2 4.2.6 1.1.7 1.8.1 1.4-1.2-.7-1 16.4.3 18.3.5 1 .4 1.2-.3.7-.7-.4-1.2-.3-1.2.3 0 1.5 1.8 2.3 2.5 1.1.3-.5 1.2-1 1.8-1 .7 0 .4.5-.6 1.1-.9.6-1.5 1.4-1.2 2 .4.5 0 .9-.8.9-2.1 0-2.3 2.6-2.1 18.5.5 27.6 1 35.6 2.4 36.5 1 .6 1.1 1.2.3 2.2-1.4 1.8-.4 39.1 1.1 41.6.4.7.1 1.2-.6 1.2-1.1 0-1.1.2 0 .9 1.5.9 1.7 3.2.8 8-.6 3.2-.6 3.3 1.1 2 1.7-1.3 1.7-1.3.1.7-1 1.1-1.8 3.7-1.8 5.7 0 3.7-2 5.1-3.6 2.6-.4-.8-.9-.7-1.5.2-.7 1.2-1 1.2-2.1 0-1-1-1-1.2 0-.7.6.4 1.2.2 1.2-.3 0-1.2 0-1.2-5.3-1.5-2.2-.2-4.3-.9-4.9-1.7-.7-1-1.1-1.1-1.4-.2-.4.9-1.3.9-3 .2-3.5-1.3-5.7-1.2-4.8.3.5.7.3.8-.5.4-.7-.5-1-1.4-.7-2.1.5-1.5-3.1-2.4-12.2-2.8-3.4-.2-6.8-.9-7.4-1.5-1.6-1.6-6.8-1.5-6.8 0 0 .6-.6.4-1.3-.5-1-1.5-1.7-1.6-4.4-.7-1.7.6-3.3 1.7-3.6 2.3-.7 1.9 1.6 7.9 3.3 8.7.8.4 2.4 1.2 3.5 1.7 1.2.6 3.2 1 4.5.9 1.4-.1 2.7.1 3 .5.3.4 3 .9 6 1.3 3 .3 5.6.5 5.8.6.1 0 .2.7.2 1.6 0 1.3.3 1.4 1.3.5.9-.7 1.7-.7 2.3-.1.5.5 3 1.2 5.4 1.5 6.4.7 9.2 1.3 10.3 2.4.5.5 1.5.7 2.2.5.7-.3 1.6-.1 2 .5.3.6 1.5 1.1 2.6 1.1s1.7.4 1.4 1c-.9 1.4 1.9 1.2 3.3-.2.8-.8 1.2-.9 1.2-.1 0 .6.8.9 1.8.6 2-.5 4.7 3.9 4.3 6.9-.1 1 .3 1.8 1 1.8.9 0 .9.3 0 1.4-.9 1.1-.8 1.8.4 3 .9.9 1.2 1.6.7 1.6s-.9.7-.9 1.5.4 1.2.9.9c.4-.3.8.2.8 1 0 .9-.4 1.6-1 1.6-.5 0-1 .5-1 1.1 0 .6.6.9 1.4.6 1-.4 1.2 0 .8 1.6-.2 1.2-.9 2.7-1.4 3.4-1.5 1.8 0 3.7 1.8 2.2.9-.8 1.4-.8 1.4-.1 0 .6-.7 1.5-1.5 2-.9.4-1.6 1.7-1.6 2.8.1 4.3.5 5.5 1.6 5 .6-.2 1.2.2 1.2 1 0 .7-.4 1.1-.8.9-1.6-1.1-2.1 12.8-.5 15.4.4.6.3 1.1-.3 1.1-.7 0-.8.9-.3 2.2.5 1.3.8 5 .8 8.3-.1 3.5.4 6.5 1.2 7.3.7.8 1 1.7.8 2.1-1 1.5-1.6 11-.8 11.5.5.3.6 2.5.2 5-.4 2.5-.5 5.9-.2 7.6.4 2.7.6 2.9 1.7 1.4.8-1.2 1.4-1.4 1.9-.6.4.7-.3 1.7-1.8 2.4-2.8 1.2-3.3 2.3-1.5 3.4.7.4.8 1.8.4 3.8-.9 4-1.3 15.6-.5 15.6.4 0 .5 1.5.4 3.2-.2 1.8-.1 2.5.2 1.5.8-2.6 2.2-2 1.6.8-.2 1.4-.8 2.2-1.3 1.9-1-.6 0 2.6 1.4 4.4.6.7.6 1.2.1 1.1-2.6-.5-3.6.1-2.5 1.4.6.8.9 1.6.7 1.8-.8.9-1.4 9.9-.7 9.9 1.7 0 2 3 .5 4.4-.8.8-1.3 2.1-1.2 2.8.4 2 2.2 2.8 3 1.5.5-.7.8 0 .9 1.8.3 4.4.4 4.9 1.2 6.2 1.1 1.7-.1 1.6-1.8-.1-.8-.7-1.1-1.6-.8-2 .4-.3.2-.6-.4-.6-1.7 0-2.2 1.2-1.3 3.5.5 1.4.5 2.6-.1 3.2-.7.7-.5 1.6.6 2.7 1.3 1.3 1.4 1.6.2 1.6-1.1 0-1.4 1.6-1.4 6.9 0 4.9.3 6.8 1.2 6.5.6-.3 1.2.2 1.2 1s-.5 1.4-1.1 1.3c-.6-.1-1.2 2-1.3 5-.1 3.2.3 5.3.9 5.3.7 0 .7.4.1 1.2-1.6 2.1-1.6 11.8-.1 11.8.9 0 .9.3.2.8-1.6 1-1.7 9.2-.1 9.2.9 0 .8.3-.2.9-1.8 1.2-7.7.5-7.4-.8.4-1.5-1.4-1.4-1.9.1-.3.7-1.3-.2-2.3-1.9-1.6-2.7-3.6-4.1-6.8-4.7-.4 0-1.2-.7-1.6-1.5-.5-.7-1.4-1-2-.7-.6.4-1.1.2-1.1-.4 0-.6-.4-.8-1-.5-.5.3-1 .1-1-.5s-.5-.8-1.1-.5c-.6.4-.9 0-.7-1.1.2-1.5-.4-2-2.9-2.2-1.8-.2-3.3-.8-3.3-1.4 0-.6-.9-1.9-2.1-2.9-1.1-.9-1.9-2.1-1.8-2.6.1-.4-.5-1-1.5-1.1-1-.2-2.5-1-3.4-1.9-6-5.2-9.5-7.3-10.8-6.2-1.1.9-1.4.8-1.4-.5 0-1.9-2.8-5.2-3.7-4.3-.3.3-1.5-.3-2.6-1.4-1.2-1.1-2.7-1.7-3.4-1.5-.6.3-1.3-.5-1.5-1.7-.2-1.6-.9-2.1-2.4-2-1.4.2-2.5-.6-3.2-2.2-.6-1.3-2.3-2.7-3.7-3.1-1.4-.3-2.5-1-2.5-1.4 0-.4-2.3-2-5.1-3.5-2.8-1.4-4.8-2.2-4.5-1.7.3.5-.1.9-.9.9s-1.2-.3-1-.6c1-1.7-5.4-6.2-10.7-7.5-1.6-.3-2.8-1.2-2.8-1.9s-1-1.3-2.2-1.4c-1.3-.1-3-1.1-4-2.3-.9-1.1-2.8-2-4.3-2s-2.4-.4-2-1c.6-1-.7-1.4-3.4-1.1-.7.2-1-.2-.7-.7.3-.5-.6-.7-1.9-.4-1.4.2-2.5.8-2.5 1.1 0 .4-.7.8-1.5.8s-1.5-.5-1.5-1.1c0-.6-.5-.4-1 .4-.6 1-.4 2 .6 3.1.8.8 1.1 1.8.8 2.2-.4.3.5.9 2 1.3 1.4.3 2.6 1 2.6 1.5s.7.9 1.5.9 1.5.5 1.5 1.1c0 .5.4.8.9.5.5-.3 2 .4 3.3 1.7 3.8 3.4 8.6 6.7 9.8 6.7.6 0 .8.5.5 1-.3.6.1 1 1 1 1 0 3 1 4.5 2.2 3.4 2.8 9.2 6.2 10.2 6 .4-.1.5.5.2 1.3-.8 2 .6 1.9 2.3-.2.8-1 1.2-1.3.9-.6-.4.6 0 1.5.7 2 .7.4 1.7 1.7 2 2.7.4 1 1 1.6 1.3 1.3.3-.3 1.8.8 3.2 2.4 1.6 1.7 3.9 3 5.5 3.1 1.6.2 2.9 1 3.3 2 .3 1 .9 1.8 1.4 1.8.5 0 1.6.7 2.4 1.6.9.8 2.4 1.6 3.4 1.7 1.3.1 1.8.7 1.4 1.9-.3 1.2.1 1.8 1.3 1.8 1 0 2.6 1 3.7 2.2 1 1.2 2.6 2.3 3.4 2.4 2.2.3 4.4 2.4 4.4 4.1 0 .8.4 1.2.9.8.5-.3 1.2-.1 1.6.5.4.6 1 .8 1.5.5.4-.3 2.2.9 3.9 2.7 1.7 1.7 3.1 2.6 3.1 1.9 0-.7.5-.9 1-.6.6.4.9 1.4.8 2.3-.2 1 .3 1.6 1 1.4 2-.4 8.2 2.8 8.2 4.3 0 1.7 3.1 4.1 6.3 4.9 1.5.4 2.5 1.1 2.2 1.6-.3.6.1 1 .9 1 .9 0 1.6.5 1.6 1.1 0 .6.9.9 2 .6 1.1-.3 1.8-.1 1.4.4-.3.5 0 .9.5.9.6 0 1.1.6 1.1 1.3 0 1.3 4.2 4 6.4 4.1.5.1 1 3 1.2 6.6.2 3.6.6 9.2.9 12.5.3 3.3.5 8.4.6 11.2 0 2.9.4 5.5.9 5.8.7.4.6 6.6-.1 19.2-.3 4-1.9 6.3-1.9 2.6 0-.9-.3-1.3-.7-1-.3.4-1.4-.7-2.4-2.3-1.7-2.7-2.3-3-7.3-3-3.8 0-5.6.4-5.9 1.4-.5 1.3-1 1.3-3.7 0-2.2-1.1-4.4-1.4-7.9-.9-2.9.4-5.1.3-5.5-.3-.3-.6-3.5-.8-7.3-.5-3.8.2-7.8.4-9 .4-1.3-.1-2.3.4-2.3 1 0 .5.5.7 1.2.3.7-.5.8-.3.3.6-.6 1-1.1.9-2.1-.4-1-1.5-2.6-1.7-8.6-1.6-4 .1-10.3.2-14 .1-5.1-.2-6.8.1-6.8 1.1s-.3.9-1-.2-1-1.1-1-.2c0 .7-.4 1.1-.9.8-.5-.4-1.2 0-1.4.6-.4 1-.8 1-1.5 0-.8-1.2-1.3-1.2-3.1 0-1.5.9-2.4 1-2.9.2-.7-1.1-7.2-1.1-10.2-.1-1.5.5-3.5.7-8 .8-1.4.1-3 .5-3.6 1-.6.5-1.9.7-2.7.3-.9-.3-2.1-.2-2.8.2-.6.4-3.9.8-7.3 1-3.4.2-7.2.6-8.6.9-1.4.3-3.8.8-5.5.9-5.6.7-9.9 1.7-11.2 2.8-.8.7-1.3.7-1.3 0 0-.6-1.3-.7-3.7-.2-2.1.5-6 .9-8.8.8-2.7 0-5.2.1-5.5.2-2 .7-9.1.6-9.6-.1-.3-.5-1-.6-1.6-.3-1.3.8-13.6.9-14.4.1-.3-.3-2.2 0-4.2.5-2 .6-5.3.8-7.4.5-2.9-.4-3.8-.2-3.8 1 0 1-.6 1.3-1.6.9-.9-.3-1.9-.6-2.2-.6-.4 0 0-.5.8-1 1.1-.8 0-1-3.8-.8-3.7.1-5.6-.3-6.2-1.2-.5-.8-.7-1.7-.4-2.1.2-.4-.8-1.8-2.3-3.3-1.8-1.8-2.1-2.6-1.1-2.6 1.3 0 1.2-.6-.4-4-1.1-2.2-2.4-4-3-4-.5 0-.6-.4-.3-1 .3-.5 0-1-.7-1-1 0-1-.2.1-.9.9-.6 1-1.1.2-1.5-.6-.4-.8-1.2-.5-1.8.4-.6-.1-1.7-1.1-2.4-.9-.7-1.5-1.8-1.3-2.5.2-.7-.2-2.1-1.1-3.1-1.2-1.4-1.8-1.5-3-.5-1.4 1.1-1.4 1-.2-.5 1-1.4 1.1-2.1.2-3.1-.6-.8-.8-1.7-.5-2 .4-.4-.1-1.8-1-3.2-.9-1.4-1.3-2.5-.9-2.5.5 0 .1-.5-.7-1-.9-.5-1.6-2.6-1.7-4.9 0-2.1-.7-4.9-1.4-6.2-1.6-2.9-2-4.6-2-8.1 0-2.1-.4-2.6-1.7-2.1-1.4.5-1.3.3.2-.9 1.3-1.1 1.6-1.7.7-2.2-.6-.4-.9-1-.7-1.4.2-.4-1.1-.7-3-.7-2 0-3.3.4-3 1.1.2.6-.2 1.1-1 1.1-.9 0-1.3-.6-1-1.4.3-.8.1-1.1-.4-.8-.6.3-1 .1-1-.5s.6-1.3 1.4-1.6c1.7-.7 1.7-4.4 0-4.4-.7 0-1.5.8-2 1.7-1.2 2.8-1.4 6.3-.3 6.3.5 0 .9.7.9 1.6 0 1.2-.3 1.4-1.3.6-1-.9-1.3-.1-1.3 3.4-.1 2.4.3 4.4.8 4.4.4 0 .7 1 .4 2.3-.4 2.2 1.6 6.2 2.6 5.2.2-.3.5.3.5 1.3 0 .9-.4 1.9-.8 2.2-.5.3-.3 1.7.5 3.1.7 1.3 1.1 3 .9 3.6-.2.6.4 1.3 1.3 1.5 1.3.2 1.7 1.5 1.9 5.3.3 5.3 3.8 14.5 5.6 14.5.6 0 .8.4.5.9-.3.5.1 1.4.9 2.1.7.6 1.1 1.8.8 2.6-.7 1.8 1.6 7.6 2.7 6.9.5-.3 1.1-.1 1.5.5.3.5.1 1-.4 1-1.8 0-.8 2.4 1.3 3.3 1.5.6 1.7 1 .8 1.9-.7.7-5.8 1.1-14.7 1.1-11.8 0-13.5.2-13.5 1.6-.1 1.5-.2 1.5-1.3 0-1.4-1.8-12.7-2.2-13.9-.4-.5.7-1.1.7-1.5 0-1.1-1.4-20.2-1.9-23.6-.6-1.8.7-2.6.7-2.2.1.4-.6-.5-1-2-1-1.7 0-2.4.4-1.9 1.2.5.7.3.8-.6.3-1.7-1.1-5.5-1.1-9.4-.1-1.9.5-3.2.3-3.6-.5-.6-.9-1.6-.9-3.7-.1-1.8.6-3.6.6-4.4.1-1.7-1-11.3-.9-15.1.2-1.8.5-2.8.4-2.8-.3 0-.6-1-.3-2.2.8-1.2 1-1.9 1.4-1.5.8.3-.6 0-1.1-.7-1.1-.8 0-1.2.9-.9 2.1.4 2.1.4 2.1-.6 0-1-2.3-4.1-4-4.1-2.2 0 .7-.5.7-1.2.1-2.2-1.5-16.8-.9-17.9.7-.5.8-.9 1-.9.5 0-.6-2.5-1.1-5.5-1.2-4.2-.2-5.3.1-4.9 1.1.3.8.1 1.7-.4 2-.5.3-1.2-.3-1.5-1.3-.4-1.8-1.5-1.9-13-1.8-9.6.1-12.3.4-11.6 1.3.7.8.6 1.5-.2 2-.7.4-1 .3-.6-.2.3-.5-.1-1.7-.8-2.7-1.1-1.5-1.3-1.5-1.8-.2-.4.8-1.3 1.2-2.2.9-.8-.3-1.3-.9-1-1.3.5-1-2.6-.7-4.3.3-.6.4-1.2.3-1.2-.2 0-1.6-5.3-3.3-9.3-3-2 .2-3.7.6-3.7.9 0 .9-4.1 2.1-6.2 1.9-1.2-.1-1.6.4-1.2 1.4.4 1.2 0 1.6-1.6 1.6-2.2 0-2.2-.1-.7-1.8 2.2-2.4 2.2-6.2.1-6.2-.8 0-1.3.4-1 .8.3.5-.9.7-2.7.6-1.8-.1-3.2-.2-3.2-.4 0-.1-1.9-.3-4.2-.5-3.4-.2-4.3 0-4.4 1.3 0 1.4-.2 1.3-.9-.3l-.9-2v2c-.1 1.6-.3 1.7-1.1.5-1-1.6-7-2.6-7-1.1 0 .5.6 1.2 1.3 1.4.7.3.5.6-.5.6-1 .1-1.8.7-1.8 1.3-.1.7-1 .2-2.1-1.1-1.5-1.9-2.2-2.2-2.8-1.2-.5.8-1.1.9-1.4.4-.7-1.1-6.6-1.1-8.3 0-.6.3-2.7.6-4.5.6-4.2-.2-6.2.3-7.1 1.6-.5.6-.8.6-.8-.1 0-.6-1.1-1.2-2.5-1.2s-2.5.4-2.5.9-.5.9-1.1.9c-.5 0-.7-.5-.4-1 .3-.6.3-1.1-.2-1.1-4.3-.7-6-.5-7 .8-1.1 1.4-1.3 1.4-1.8.1-.4-.9-2.1-1.5-4.8-1.6-2.3-.1-4.9-.4-5.8-.7-1-.3-2-.1-2.4.5-1.5 2.4-2 .5-1.9-7.3.1-9-.3-11-1.9-10-.6.4-.7.1-.1-.8 1-1.7 1.1-3.2.2-8.4-.4-2.6-.2-4.2.5-4.7.9-.5.9-1 0-1.9-.6-.6-.9-1.8-.6-2.6.3-.8 0-1.9-.8-2.4-1.1-.7-1.1-1.1-.2-1.7.9-.6.7-1.6-.8-4.1-1.1-1.8-1.5-3-1-2.7.5.4 1.3.2 1.6-.4 1.1-1.8 1.3-10.5.3-11.7-.7-.9-.5-1.5.6-1.9 1.2-.5 1.4-1 .6-1.9-.5-.6-.7-1.5-.3-1.8.3-.4 0-1.4-.8-2.4-.8-.9-.9-1.4-.3-1 .7.4 1.4 0 1.8-.8.3-.9 0-1.5-.9-1.5s-1.5-1-1.5-2.5c0-1.4.4-2.5.9-2.5s.6-1.5.1-3.4c-.4-1.9-.4-3.9 0-4.5.8-1.4.1-6.9-1.1-7.7-.5-.3-.5-1.4.1-2.4.6-1.1.9-4 .6-6.5-.3-3 0-4.3.7-3.8.6.3.7.1.3-.6-.4-.6-1.2-.9-1.7-.6-.5.4-.9 0-.9-.9 0-.8.5-1.6 1.1-1.8 1.4-.5 2.3-6.9 1.1-7.7-1.5-.9 1.1-7.6 2.8-7.5 3.8.3 5.6 1 7.3 2.8.9 1.1 2.9 2.1 4.4 2.2 1.4.2 2.9.8 3.3 1.5.4.6 1.2.9 1.8.5.6-.3 1.7.1 2.5.9.9.8 2.1 1.5 2.7 1.5.6 0 2 .9 3.2 2 1.5 1.4 2.5 1.7 3.4.9.8-.7 1.3-.6 1.6.2.3.9 4 1.3 12.5 1.4 8.1.1 12.6.5 13.7 1.4 1 .9 2 .9 3.3.3 1-.6 4.5-1.2 7.8-1.4 4.4-.3 5.9-.7 5.7-1.8-.3-1.1-.1-1.1 1.3 0 1.4 1.2 1.8 1.1 2.6-.1.5-.9.9-1 .9-.2 0 .6.9 1.1 1.9 1 1.2-.1 1.7-.6 1.3-1.7-.4-1.1.1-1 1.8.5 1.4 1.2 2 1.4 1.5.5-.8-1.3-.7-1.3.8-.1 1.4 1.1 2 1.1 3.2.1 1.1-.9 1.9-.9 2.8-.2.8.7 1.8.7 2.7.2.9-.6 1.7-.5 2.2.3.5.9.8.8.8-.3s1.3-1.6 4.7-1.7c2.5-.2 6.1-.7 7.9-1.3 1.9-.6 3.9-.8 4.5-.4 2.1 1.3 5.8 1.3 5.3 0-.3-.8 1.8-1.2 7.1-1.2 4.8-.1 8.1-.6 8.8-1.4.7-.7.7-1 .1-.7-.6.3-1.1 0-1.1-.8 0-.9.6-1.1 1.6-.6 2.1.9 9.3.4 10-.7.3-.6 1.9-1 3.5-1 1.5 0 3.2-.5 3.6-1.2.5-.7 2.1-1.4 3.7-1.6 1.5-.1 4.2-.4 6-.6 1.8-.2 3.8-.9 4.5-1.6 1.4-1.4 4.8-1.6 4.8-.3 0 .5.8.8 1.8.6 6.1-1.2 7.2-1.7 6.7-2.4-.3-.5.7-.7 2.2-.5 4.5.7 10.1.3 12.2-1 .7-.4 3.8-.9 7-.9 4.1-.2 6.3-.7 7.6-2 1.3-1.4 2-1.5 2.5-.6.7 1 2.3.9 7-.6.3-.1 2.2-.5 4.4-1 2.5-.5 4-1.4 4.3-2.6.3-1.1 1-1.9 1.5-1.9s.6.6.3 1.2c-.4.7-.1.6.7-.2.7-.8 2-1.6 2.8-1.8.8-.2 1.9-.9 2.3-1.5.7-.9 1-.9 1.3 0 .4.9 1.1.9 3 .1 1.3-.6 2.4-1.5 2.4-1.9 0-.4 1.2-1 2.6-1.3 1.6-.4 2.4-1.2 2.1-2-.4-.9.2-1.2 1.8-.8 1.5.2 3-.3 4.1-1.6.9-1.1 2.3-1.8 3-1.5.7.3 3.6-1 6.5-2.8 2.8-1.9 5.6-3.4 6.3-3.5.6 0 1.6-.2 2.3-.2.6-.1 1.6-1.6 2.2-3.2.5-1.7 1.6-3 2.3-3 1 0 1 .2-.1.9s-1.1.9 0 1.3c.8.3 1.9-.1 2.4-.8.8-1.2 3.4-2 6.8-2.3.5-.1.5-.6.1-1.3-.4-.6-.3-.8.3-.5.5.3 2.7-.6 4.9-2.1 2.1-1.5 5.3-3.4 6.9-4.3 1.7-.9 2.9-2.4 2.9-3.2-.1-.9.5-1.8 1.3-2.1.8-.3 1.1-.1.8.4-.3.6-.2 1 .4 1 .5 0 1.5-.8 2-1.8.6-.9 1.1-1.3 1.1-.7 0 .6.4.5.8-.1.4-.7 2.3-2.1 4.2-3.2 1.9-1.1 3.4-2.5 3.3-3.1-.2-.6.3-1.1 1-1.1.8 0 3.5-2.3 6.1-5 2.6-2.8 4.4-5 4.1-5-.4 0 .5-1.4 1.9-3 1.5-1.9 2.3-3.7 1.9-4.7-.4-1.1-.3-1.4.5-.9 1.1.6 1.3.3 1.2-1.9 0-.3 1.1-1.8 2.5-3.3 1.4-1.5 2.5-3.7 2.5-4.9 0-1.3.4-2.3.8-2.3 1.1 0 5.4-5.8 5.6-7.8.2-.9.8-1.8 1.4-2 .7-.2 1.2-1 1.2-1.7 0-.8.8-2.1 1.7-3.1 1-.9 1.8-2.2 1.9-2.8.2-2.3 1.7-5.6 2.4-5.6 1.7 0 3.4-8.6 1.9-9.5-.5-.4-.6-1.1-.3-1.7.4-.7.9-.6 1.4.3.6.8 1.9-1.1 4-5.7 1.7-3.8 3.5-7.7 4.1-8.6.5-1 .9-2.4.9-3.2 0-.8.4-1.6 1-1.8.5-.1 1.1-1.2 1.3-2.3.1-1.1.6-2.6 1-3.3.5-.6.5-1.2 0-1.2-.4 0-.3-.4.4-.8.6-.4 1.4-2.3 1.6-4.2.3-1.9.6-3.5.7-3.5.1 0 .4-1.1.5-2.5.2-1.4 1.1-4.7 2-7.3.9-2.7 1.5-6.9 1.4-9.4-.2-2.4.1-4.7.7-5.1.6-.4 1.1-1.6 1.2-2.7.1-1.1.4-4.3.7-7 1.6-13.8 2-23.6 1.3-28-.2-1.2.2-1.9 1-1.7.8.1 1.1-.2.7-.8-.4-.6-.1-1.8.7-2.7.9-1.2.9-1.5.1-.9-.7.4-1.3.3-1.3-.3 0-.5.4-1.3 1-1.6 1.6-1 1.1-5.2-.6-5.9-1.5-.6-1.5-.9.5-2.9 1.5-1.7 2.1-3.6 2.1-7 0-2.6.4-4.7.9-4.7.4 0 .8-1.2.7-2.8-.1-1.8-.6-2.6-1.6-2.4-1.1.3-.9-.2.5-1.8 2.4-2.6 2.7-6 .7-8.3-.8-.9-1.1-1.7-.6-1.7 1.4 0 1.5-4.3.1-5.2-.9-.6-.9-1 .1-1.6 1.3-.9 1.1-5.9-.3-8.2-.5-.9-.4-1.1.3-.6.9.5 1.1-1.7 1.1-7.8-.1-4.7-.6-8.3-1-8-.5.3-.9.1-.9-.5 0-.5.6-1.2 1.3-1.4.9-.4.9-.6 0-.6-.7-.1-1-.8-.7-1.6.4-.8.1-2.1-.4-2.8-.6-.7-1.1-3.6-1-6.4 0-2.8-.6-6.1-1.3-7.4-1.6-3-2-7.6-.9-10.5.8-2.1-.9-5.2-2.1-4-.2.3-.4-2.3-.3-5.7 0-3.4-.3-7.3-.8-8.6-.5-1.3-1-4.2-1.2-6.5-.2-2.6-.7-4-1.5-3.8-.7.1-1-.2-.7-.7.4-.5.2-2-.3-3.3-.6-1.5-.5-3.1.1-4.2.8-1.4.7-1.7-.1-1.2-.6.4-1.1.1-1.1-.8s-.5-1.6-1.1-1.6c-.8 0-.8-.4.1-1.5.6-.8.9-1.8.6-2.4-.3-.5-.2-1.1.4-1.3.6-.2.1-.9-1-1.6-1.2-.7-2-.8-2-.2 0 .5.5 1 1.1 1 .5 0 .7.5.4 1-.4.6-1 .8-1.5.5-.4-.3-1.6-.2-2.5.1-1.2.5-1.3.9-.5 1.4.8.5.9 1.3.4 2.1-1.4 2.2-1.6 5.9-.3 5.9.6 0 .9.8.6 1.9-.3 1.2.1 2.2 1 2.5 1.3.6 1.3.9-.1 3.1-1.5 2.2-1.3 5.5.3 5.5.4 0 .5 1.8.3 4-.3 2.4 0 4 .7 4s.8.8.2 2.3c-1.2 3.2-.2 11.8 1.7 13.9 1 1.2 1.3 3 .9 5.8-.3 2.2-.2 3.8.3 3.5.9-.6.6 4.2-.5 6.8-.4 1-.1 2.7.9 4.2.9 1.4 1.2 2.5.7 2.5s-.9 1.8-.8 4c.1 2.2.4 4 .7 4 .3 0 .5 2.2.6 4.9 0 3-.4 4.9-1 4.8-1.3-.2-.8 5.3.6 7 .7.9.7 1.3.1 1.3s-1.1 2.4-1.1 5.2c-.1 6.7-1 17.9-1.6 19.5-.3.6 0 1.3.6 1.5.8.3.5 1.5-.8 3.6-1.4 2.5-1.6 3.5-.7 4 1 .6.9 1.4-.2 3.6-1.8 3.5-1.9 3.4.3 3.9 1.2.3 1 .5-.7.6-1.7.1-2.2.5-1.7 1.7.4.9.2 2.2-.2 2.8-1 1.2-1.4 3.6-1.1 8.1.1 3.9.1 4.8-.6 12-1.2 13.2-1.8 17-2.5 17.5-1.2.8-2 4.3-2.5 10.2-.2 3-1.1 7-1.9 9-.9 2-1.8 5.5-2.1 7.7-.3 2.3-1.2 5.3-2.1 6.6-.9 1.4-1.4 3.4-1.1 4.5.3 1.1.1 2-.4 2-.9 0-2 2.2-3.3 7-.6 1.9-.5 2.1.3 1 .6-.8 1.1-1.1 1.1-.5 0 1.4-2 4.3-2 3-.1-1.1-3.9 6.5-4 7.8 0 .5-.7 1.5-1.5 2.3-.8.9-1.5 2.6-1.5 3.9 0 1.3-.4 2.7-1 3-.5.3-.8 1.9-.6 3.6.3 2.2 0 2.9-.9 2.5-1.4-.5-2.5 1.4-2.5 4.5 0 1.1-.4 1.7-1 1.4-.5-.3-1 0-1 .8s-.6 1.7-1.4 2c-.8.3-1.7 1.9-2.1 3.6-.3 1.7-1.2 2.9-1.8 2.8-.6-.1-1.1.2-1.2.8 0 .5-1.3 2.6-2.8 4.6-1.5 2-2.6 4.1-2.5 4.6.2.5-.9 2-2.3 3.4-1.4 1.3-3.4 4.3-4.5 6.6-1 2.3-2.4 4.3-3 4.3-.7 0-1.5 1.1-1.8 2.5-.4 1.4-1 2.3-1.5 2.1-1.1-.7-3.3 1.9-2.4 2.7.3.4 0 .7-.8.7s-3 1.5-4.9 3.3c-1.9 1.9-6.7 5.3-10.7 7.6-4 2.4-7.7 4.9-8.4 5.7-.6.8-1.8 1.4-2.5 1.4-.8 0-1.4.4-1.4 1 0 .5-.5 1-1 1-.6 0-2.8 1.1-5 2.5s-4 2.2-4 1.9c0-.4-.8-.1-1.7.7-1.9 1.6-6.9 4-12.1 6-1.9.7-3.1 1.7-2.8 2.4.3.8-.2 1.1-1.2.8-1-.2-2.6.5-3.8 1.5-1.1 1.1-3.5 2.3-5.2 2.7-1.8.3-3.8 1.2-4.5 1.8-1.5 1.4-10.5 5.4-16.7 7.3-2.5.8-5.2 1.7-6 2-.8.4-2.3.8-3.3.9-1.1.1-2.3.8-2.9 1.6-.7 1.1-1.1 1.1-1.5.1-.8-1.9-5.7-1.4-8.2.9-1.7 1.6-2.5 1.8-3 1-.7-1.1-5-.9-7.1.4-.5.3-4.4.8-8.6 1-8.9.5-11.7 1.2-11.1 2.9.3.8-1.6 1.2-6.5 1.2-3.8 0-7.2.5-7.6 1.1-1.3 1.9-5 3.3-8.1 2.9-1.9-.2-2.8.1-2.4.7.4.6-.5.8-2.4.4-1.8-.3-4.1 0-5.8.9-1.5.8-3.5 1.2-4.4.9-.9-.2-2.8.2-4.3.9-1.6.8-3 1.1-3.3.6-.7-1.1-8.2 1.6-10.8 3.9-1 .8-1.8 1.1-1.7.6.5-2.4-.1-2.7-2-1-2.1 1.9-7 3-7 1.5 0-1.2-3.7-1.9-4.8-.8-.6.6-1.2.6-1.6-.1-.9-1.4-2.6-1.4-2.6 0 0 .5.6.7 1.3.3.6-.4.9-.3.4.1-.4.5-1.7 1-2.9 1.2-1.2.2-2.7.8-3.5 1.4-1.2 1-1.7.6-1.5-1.2.1-.4-1-.9-2.3-1.1-1.3-.3-2.2-.1-1.9.3.3.5-.6.9-2 .9-1.3 0-3.7.5-5.3 1.1-2 .7-2.9.7-3.1-.1-.3-.7-.9-.7-2 .2-1.2 1-1.4 1-.8 0 .4-.6.3-1.2-.3-1.2-.5 0-1.3.4-1.6 1-.8 1.4-4.8 1.3-6.3-.2-.9-.9-1.3-.7-1.8.5-.3.9-1 1.4-1.5 1.1-.5-.3-.7-1-.4-1.5.8-1.1-.5-1.2-2.3 0-.7.4-3.1.5-5.2.1s-4.5-.3-5.3.2c-1 .5-2 .3-2.9-.5-1.5-1.4-7.6-1.6-9.6-.4-.7.5-1.2.4-1.2-.2 0-.6-.9-1.1-1.9-1.1-1.1 0-2.3-.5-2.6-1-.4-.6-1.2-1-1.8-.8-.7.1-3.4-.9-6.2-2.2-2.7-1.3-5.9-2.5-7-2.7-1.1-.2-2.3-1-2.8-1.8-.6-1.2-1.3-1.3-2.8-.5-1.3.8-1.9.8-1.9 0 0-.6-.4-.8-1-.5-.5.3-1 .1-1-.5 0-1.9-2.6-4-3.7-2.9-1.3 1.3-1.3-2.2 0-3.9.8-1 .7-1.6-.3-2.2-1.2-.8-1.2-1 .1-1.5 1.4-.5 1.6-2.2 1.2-10.8-.3-5.6-.4-11.2-.4-12.4 0-1.2-.4-2.5-1-2.9-.8-.5-.8-.9.1-1.4 1.3-.8 1.8-9.9.6-11.8-.4-.7-.4-1.7 0-2.4.7-1.1.8-3.2.5-8.3-.1-.8-.6-1.5-1.2-1.5-.5 0-.8.4-.5.9.4.5-.3.7-1.4.4-2.9-.8-3.3-2-.7-1.9 1.3.1 2.1-.4 2-1.2-.2-.6.1-1.2.5-1.2.8 0 1.5-6 1.3-9.8-.1-.6-.1-1.8-.2-2.5-.1-.6.2-2.9.5-5 .4-2.8.1-3.9-.9-4.3-1.3-.5-1.2-.8 0-2.1 2-1.9 1.9-3.1-.2-3.6-1.6-.4-1.6-.5.1-.6 1.3-.1 1.6-.6 1.1-1.9-.4-.9-.7-2.7-.6-4 0-1.3-.3-3.1-.9-4.1-.5-1.1-.5-2.2 0-2.7.6-.6.2-3.9-.9-8.4-1.1-4.6-1.4-7.7-.8-8.1.6-.4.6-1.3 0-2.5-.6-1.1-.8-3.9-.6-6.4.5-6.2.5-8.6-.3-15-.4-3-.6-6.3-.5-7.3.5-5.9-.3-18.3-1.4-21.5-.2-.6-.1-1.2.3-1.2 1.5 0 .2-22.6-1.5-25.3-.3-.6-.1-.7.5-.3 1.4.8 1.4-1 .3-9.9-.5-3.3-.5-6.5-.1-7 1.2-1.7 2.2-6.7 1.1-6.1-.5.4-.5-.9 0-3.3.5-2.1.8-5.4.7-7.2 0-1.9.3-5.8.6-8.6.6-4.6.5-5.2-.8-4.7-2.1.8-2.1-1.2-.1-2.4 1.3-.6 1.4-1.4.6-3.4-.6-1.5-.6-2.8-.2-3 .5-.2 1.2-1.4 1.6-2.7.6-2 .4-2.3-.9-1.8-1.3.5-1.5.3-.7-1.2.6-1 .7-2.2.3-2.6-.4-.5-.1-.5.6-.1.8.5 1.2 0 1.2-1.3 0-1.2-.7-2.1-1.5-2.1-1.7 0-2-1.6-.4-2.5.6-.4.8-1.3.5-2-.2-.7.1-1.8.7-2.4.8-.8.6-1.6-.8-3.1-1.2-1.3-1.5-2.4-.8-3.2 1-1.4 1-7.9-.1-9.6-.3-.5 0-1.2.6-1.5 1-.3 1-.8.2-1.8-1.2-1.6-1.2-2.9 0-4.7.4-.7.7-4.3.6-8-.1-3.7-.2-9.3-.2-12.5 0-3.5-.5-5.7-1.2-5.7s-.7-.3-.1-.8c1.5-1.1 1.8-4.2.4-5.8-.8-1-.8-1.4 0-1.4 1.4 0 1.5-3.7.1-4.5-.7-.4-.7-1.2 0-2.5 1.4-2.6 1.3-3.5-.3-2.1-1.1.8-1.4.5-1.4-1.8 0-2.2.4-2.8 1.6-2.3 1.4.5 1.4.3.2-1.1-.7-.9-1-1.7-.5-1.7s1-1.2 1.1-2.7c.1-1.9-.1-2.2-.8-1.2-.7 1.2-.9 1.1-.9-.2 0-.8.5-2 1.2-2.7.9-.9.9-1.2-.2-1.2s-1.1-.3-.2-1.2c.8-.8.8-1.5.1-2.4-.7-.9-.7-1.9 0-3.3.6-1.1 1.1-3 1.1-4.3 0-4.1 1.1-4.8 5.3-3.3 3.4 1.2 3.6 1.1 2.5-.3-1-1.2-1-1.4 0-.8.7.4 1.2.2 1.2-.4 0-.6.5-.8 1.1-.5.6.4.8 1.4.4 2.2-.4 1.3-.3 1.4.9.4 1.2-1 2-.9 4.2.6 2.1 1.3 2.9 1.4 3.2.5.3-1 .8-1 2.5.1 2.6 1.7 5.9.8 6.3-1.6.1-.9-.2-1.7-.7-1.7-.4 0-.6-.7-.3-1.5.4-.8 1.2-1.5 2-1.5.7 0 1.1-.6.8-1.4-.3-.8 0-1.7.5-2.1.6-.3.8-1.1.5-1.7-.4-.7-.2-.8.4-.4.6.4.8 1.4.5 2.3-.5 1.2-.3 1.4.7.8 1-.6 1.2-.4.7.8-.9 2.3 1.9 2.2 3.2-.1.7-1.1 1.3-1.4 2-.7 1.8 1.8-.5 3.5-5.1 3.8-3.8.1-4.4.4-4 2 .5 2 6.7 5.5 7.8 4.4.4-.4.2-1.3-.5-2.1-1.5-1.8 1.1-3 2.8-1.3.9.9 1.1.8.6-.6-.6-1.3-.2-1.7 1.5-1.7 1.6 0 2 .4 1.6 1.5-.4 1 .3 1.7 2.2 2.1 1.5.3 3.4.8 4.4 1 .9.3 2 0 2.3-.7.6-.8 1-.7 1.6.2.7 1.1 1.1 1 2.3-.6 1.5-2 1.6-2 2.2.3.5 1.8.9 2 1.5 1 .5-.7 2-1.3 3.3-1.3 1.4 0 2.5-.5 2.5-1-.1-.6-.5-.9-1-.8-.5.2-.9-.2-.9-.8 0-.7 1.1-.8 2.9-.4 2.2.5 3.2.2 3.9-1.1.8-1.4 1.3-1.4 2.8-.5 1.4.9 1.5 1.1.2.7-1.7-.5-5.6 3-4.5 4.1.4.3.7.2.7-.4 0-.6.9-1.3 1.9-1.6 1.5-.3 1.8 0 1.7 1.7-.2 1.8.2 2.2 3 2.3 2 0 3.5-.5 3.8-1.4.4-1 1-1.1 2.5-.3 2.5 1.3 3.4 1.3 2.6 0-.3-.6-.1-1 .4-1 .6 0 1.1.4 1.1.8 0 .7 2.1.8 4.9.3.3-.1 0-.6-.7-1.3-1.7-1.7-1.5-2.8.6-2.8 1.4 0 1.5.2.2 1-1 .6-1.1 1-.2 1 .6 0 1.2.7 1.2 1.6 0 1.2.6 1.5 2.3.9 1.2-.4 3-.7 4-.6.9 0 1.7-.5 1.7-1 0-.6.7-.3 1.6.6 1.2 1.2 1.9 1.3 3 .4s1.4-.8 1.4.2c.1.9.8.5 2-1 1.1-1.3 2-1.8 2-1.1 0 1.3 4.1.4 5.1-1.2.3-.4 1.6-.7 2.9-.5 1.3.2 3.5-.2 4.9-1 3.4-1.7 3.9-1.6 3.7.4-.1 1.4.8 1.8 4.3 2 2.5.1 5.4-.5 6.6-1.3 2.3-1.5 5.5-1 5.5.8s2.8-1.1 3.4-3.5c.3-1.5 1.3-2.3 2.6-2.3 1.9 0 1.9.2.6 1.2-2.2 1.6-2 3.4.4 3.4 1.1 0 2 .6 2.1 1.2 0 .7.4.3.9-1 1.2-2.8 4.1-2.9 5.8-.1 1.3 2 2.5 1.9 2.8-.2.1-.5.2-1.4.3-1.9.1-.6.9-.5 2.1.2 1.4.9 1.6 1.5.7 2.1-.7.5-.4.6 1 .2 1.2-.3 2.4-.1 2.8.5.3.5 1.2 1 1.8 1 .8 0 .8-.3-.1-.9-1-.6-1-1 .3-2.1 1.3-1 1.5-.9 1.5.8 0 2.4 2.5 4.8 3.5 3.2.3-.5.4-1.4.1-1.9-.3-.4.6-1.3 2-2 1.5-.6 2.3-.7 1.9-.1-.3.5 0 1 .7 1 .8 0 .6.5-.4 1.1-1 .5-1.8 1.5-1.8 2 0 .6.5.7 1 .4 1.9-1.2 7-1.4 7-.3 0 .7.4.7 1.3.1.6-.6 2-1 2.9-1 1.8 0 2 1.7.3 2.9-.6.5-.6.8.2.8.7 0 1.6-.6 2-1.3.4-.6 1.8-1.8 3.1-2.5 2-1.1 2.3-1 3.2 1l.9 2.3v-2.3c.1-1.2.5-2.2 1.1-2.2.5 0 1.5 1 2.2 2.2.7 1.3 2.1 2.4 3.1 2.4 1.4.2 1.5-.1.6-1.2-.9-1.1-.9-1.8-.1-2.6s1.4-.5 2.1 1.3c.6 1.4 1 1.8 1.1.9.1-1 .4-.9 1 .5.7 1.7.9 1.7.9.3.1-2.2 3.1-1.2 3.1 1 0 1.3.2 1.3 1.8-.1 1.2-1.1 2.2-1.3 3.2-.7 2.1 1.3 3.3 1.2 2.4-.1-.4-.7-.1-1 .7-.7.8.3 1.3 1.1 1.1 1.7-.2.9.3.9 1.7.1 2.7-1.4 4.1-1.3 4.1.5 0 .9.6 1.2 1.5.9.8-.4 1.5-1.2 1.5-1.9s1.1-1.3 2.5-1.3c1.3 0 2.2.4 2 .8-.6 1 2.4 2.2 3.6 1.4.5-.3.9-1.3.9-2.2.1-1.5.2-1.5 1.5.2 1.2 1.6 1.7 1.7 3 .6 1-.8 1.5-.9 1.5-.1 0 1.3 2.2 1 3.2-.4.4-.5.2-1.2-.3-1.6-.7-.4-.5-.8.4-1.2 1.1-.4 1.5 0 1.2 1.4-.3 1.4.2 1.9 1.9 1.9 1.3 0 3-.7 3.7-1.6 1.2-1.4 1.4-1.4 2 .3.7 1.6.8 1.6.8.1.1-.9.7-2 1.4-2.4.6-.4.9-.4.5.1-1 1 2.9 3.8 4.1 3 .6-.3.8-1.4.6-2.5-.2-1.1.1-2 .6-2 .6 0 .7-.5.3-1.2-.4-.7-.3-.8.4-.4s1.2.3 1.2-.2c0-.6.6-1.2 1.3-1.5.7-.3 1.2.4 1.2 1.8 0 1.6-.5 2.1-1.7 1.7-1.2-.3-1.8.1-1.8 1.4 0 .9.3 1.4.7 1.1.3-.4 1.2-.2 2 .5 1.8 1.5 4.5-1.9 3.3-4.2-.5-.9-.4-2.2.2-3.1.8-1.1.9-1 .4.4-.4 1.4-.1 1.8 1.2 1.5.9-.2 1.6-1.1 1.6-2.1-.1-.9.2-1.4.7-1.1.5.3.6 2.1.3 4l-.5 3.5 3.5-.7c2-.3 4.2-.2 4.9.4.6.5 2.6 1 4.4 1 2.5 0 3.1-.3 2.6-1.5-.5-1.4 0-1.5 3.3-1 2.1.4 4 1.1 4.2 1.7.3.7 1.1.5 2.3-.6 1.1-1 1.9-1.2 1.9-.6 0 .7 1.4 1.2 3.1 1.2 2 0 2.8-.4 2.3-1.2-.5-.7 0-.9 1.4-.6 1.5.4 1.9.2 1.5-.8-.4-1 .3-1.4 2.1-1.4 1.4 0 2.6-.5 2.6-1.1 0-.6.6-.9 1.3-.6.6.2 1.1 1 .9 1.6-.1.7.2 1 .8.6.5-.3 1-.1 1 .4 0 .6.9 1.1 2 1.1s2-.6 2-1.2c0-.7.7-.2 1.6 1 .8 1.2 2.1 2.2 2.7 2.2.8 0 .8-.3-.2-.9-1.1-.7-1.1-1 0-1.7 2.7-1.6 5.7-1.3 6.2.7.4 1.4 1 1.7 2.3 1.2 1.1-.4 1.3-.8.6-1.1-.7-.2-1-.7-.7-1.2.7-1.1 4.5 0 4.5 1.2 0 .6.9.8 2 .5 1-.3 2.1 0 2.3.6.2.8 1 .6 2.1-.6 2.2-2.1 3.7-2.2 2.9-.1-.5 1.3.1 1.4 3.5.9 2.4-.3 4.3-.1 4.7.5.7 1.1 3.6 1.4 3.4.2-.3-1.9.2-2.2 1.7-.7 1.1 1 2.5 1.4 4 1.1 1.3-.4 2.4-.1 2.7.7.4.8.8.8 1.4.2 1.2-1.5 3.4-1.7 4.9-.4.7.6 2.9 1.1 4.9 1.1 1.9 0 3.8.4 4.1.9.3.6 1.2.5 2.2-.3 1-.8 1.3-.8.9-.1-.9 1.5 1.2 2.2 3.8 1.3 1.1-.4 3.7-.6 5.7-.5 2.1.2 3.5-.1 3.2-.6-.3-.5.9-.9 2.6-.9 1.7 0 2.9.4 2.5 1-.5.8 1.4.8 11.8.1 1 0 1.5-.5 1.2-1.1-.4-.7.3-.7 2 0 1.5.6 3.1.8 3.6.4.5-.3.9 0 .9.7s.8.5 2-.6c1.1-1 2-1.3 2-.7 0 1.8 4 1.4 4.7-.3.3-.9 1.3-1.5 2.2-1.3.9.1 2.2-.1 3-.6.8-.5 1.6-.4 2.1.4.4.7 1.2 1 1.8.6.6-.3 1.3-.2 1.7.4.4.7 1.3.7 2.6-.1 1.1-.6 3.6-.8 5.5-.6 2.7.4 3.4.1 3.5-1.2 0-1.2.2-1.1.9.4.8 1.9.8 1.9 1.8-.5.6-1.4 1.1-1.9 1.1-1.2.1.7.6 1 1.1.7.6-.4.9-.1.8.7-.2.7.5 1.2 1.5 1.2.9-.1 1.7.4 1.7 1.2 0 .8.5 1.4 1 1.4.6 0 1-.4 1-.8 0-.5.7-.9 1.5-.9s1.2.4 1 .8c-.3.4.2.9 1 1.3.8.3 1.7.1 2.1-.5.4-.7 1.2-.5 2.3.5 1 .9 2 1.4 2.2 1.2.2-.3 3.1-.8 6.3-1.1 4.1-.5 6.1-.4 6.6.5.4.7 1.6.9 2.9.5 1.2-.3 1.9-1 1.7-1.4-.3-.4 1.4-.6 3.7-.4 8.3.8 22.2.8 24.5.1 1.2-.4 2.2-.3 2.2.2s.6.7 1.4.4c.8-.3 1.7 0 2.1.6.5.8 1.3.6 2.8-.7 1.9-1.7 2-1.7 1.4-.1-.4 1-.2 1.8.3 1.8.6 0 1-.7 1-1.5 0-1.2.7-1.4 2.8-.9 1.5.4 3.2 1 3.7 1.5.6.5 1.6 0 2.3-1.1 1.5-2.4-.1-6.5-3.8-9.7-1.9-1.7-3.8-2.2-7.8-2.3-4 0-5.1.3-4.6 1.2.6 1 .4 1-.7.2-1.9-1.4-24-.9-26.9.6-1.2.7-2 .8-1.6.2.4-.6-1.5-.9-4.9-.8-3 0-5.5-.3-5.5-.8s-.8-.2-1.8.7c-1.2 1.1-2.2 1.3-3.2.7-.9-.6-1.7-.5-2.2.3-.5.8-.9.6-1.4-.6-.6-1.7-.7-1.7-2.7 0-1.1 1-1.7 1.3-1.4.6.9-1.5-1.7-2.2-7.3-2-3.1.2-4.9-.2-5.7-1.3-.9-1.3-3.1-1.6-12.5-1.3-6.2.1-13.3.5-15.8.8-2.5.3-7.6.7-11.4.9-3.8.3-7.2.8-7.5 1.3-.9 1.2-3.4 1.5-2.6.4.3-.6-3.1-.9-9.2-.7-7.1.2-9.7.6-9.5 1.5.1.7-.2 1-.8.6-.6-.3-.8-1.1-.5-1.6.8-1.2-4.1-1.2-6.4.1-1.3.6-3.3.3-6.9-1-3.9-1.5-5-1.6-4.6-.6.3.8 0 1.7-.6 2.1-.6.3-1 .3-.9-.2.4-2.5-.3-3.9-2.1-3.9-1.1 0-2 .6-2 1.3 0 .7-.4 1.3-.9 1.3s-.7-1-.3-2.2c.3-1.4.1-1.9-.6-1.4-2.1 1.3-5.3 1.6-4.6.4.5-.7.2-.9-.9-.5s-1.4.2-1.1-.8c.4-1-1-1.3-7-1.1-4.2.1-7.6-.2-7.6-.7 0-.4-.5-.5-1.1-.1-.6.4-2.7 1-4.5 1.4-2.7.6-3.4.5-3.4-.7 0-.8-.4-1.2-.9-.8-.5.3-1.2.1-1.6-.5-.8-1.3-4.5-1.3-4.5 0s-2.7 1.3-3.2 0c-.2-.6-1.4-.7-3.4-.1-1.8.5-3.6.5-4 .1-.5-.4-2.4-1.1-4.2-1.5-2.9-.6-3.3-.4-4.5 2.5l-1.3 3.1-1.2-2.6c-1.3-2.9-3.8-3.3-4.5-.8-.4 1.6-.5 1.6-.6.1-.1-2.2-4.1-3.5-5.2-1.7-.7 1.1-1.2 1.2-2.9.1-2.7-1.6-2.9-1.5-2.3.8.3 1.1.1 2-.5 2-1.4 0-3.3-2.5-2.5-3.3.3-.4-1.9-.7-5-.7s-5.9.5-6.2 1c-.5.8-1.1.8-2 0-.7-.6-3.5-.8-7.1-.4-3.3.3-8.3.6-11.2.7-3.9 0-5.2.4-4.8 1.3.3.7.1 1.6-.4 1.9-.4.3-1 0-1.2-.5-.2-.6-3-1.3-6.2-1.6-4.7-.4-6.1-.1-7.1 1.2-.9 1.3-1.4 1.4-1.9.5-.6-.9-1.1-.9-2.3 0-.9.8-1.7.9-2.1.3-1.1-1.5-7.5-1.4-10 .2-1.4.9-2.1 1-2 .3.2-.6-.3-1.4-1.1-1.7-.9-.3-1.1 0-.6.9.6 1.1.5 1.2-.6.1-2.8-2.6-19-.7-17.2 2.1.3.6.1.7-.6.3-.6-.4-.9-1.1-.6-1.5.2-.5-.7-.9-2-.9-1.4 0-2.5.4-2.5.9s-.5.9-1.1.9c-.5 0-.8-.4-.5-.9.8-1.2-2.9-2.1-4.5-1-.7.4-2.1.3-3.1-.2-1-.6-2.9-.7-4.1-.3-3.4 1.1-7.7 1.3-7.7.3 0-.5-1.1-.4-2.5.1-1.7.6-2.5.6-2.5-.1 0-.6-.9-.8-2-.4-1.1.3-2 .2-2-.3 0-1-3-.9-4.8.2-.7.4-1.2.4-1.1-.1.4-2.2-.3-2.5-1.7-.7-1.3 1.6-1.5 1.6-1 .1.4-1.3 0-1.7-1.9-1.7s-2.5.5-2.6 2.2v2.3l-1-2.3c-.5-1.3-1.4-2-2-1.7-.5.4-1.8.1-2.7-.7-.9-.8-2.7-1.2-4-1zm112 7.4c-.6.6-1.5.8-1.9.4-.4-.4-.1-1.1.7-1.6 1.9-1.2 2.7-.3 1.2 1.2zm50.7.1c0 .9-.2.8-.6-.1-.2-.6-1-.9-1.5-.6-.7.4-.8.2-.4-.5.9-1.3 2.6-.5 2.5 1.2zm-234.6 1.4c-.4 1.1-.8 1.3-1.1.5-.3-.9-.8-1-1.6-.3-.8.6-1.7.6-2.6-.1-1.2-.8-1.2-.9.3-.4.9.3 1.7.1 1.7-.4 0-.6.9-1 2-1 1.4 0 1.8.5 1.3 1.7zm-47.2 1.6c-1 .9-1.1.8-.5-.6.3-1 .9-1.5 1.2-1.2.3.3 0 1.1-.7 1.8zM291 95c0 .5-.2 1-.4 1-.3 0-.8-.5-1.1-1-.3-.6-.1-1 .4-1 .6 0 1.1.4 1.1 1zm100.5 1.1c-.6 2.9-1.3 3.5-2.7 2.1-.9-.9-.7-1.5.8-2.7 2.4-1.8 2.4-1.9 1.9.6zm-333.8.5c-.3.3-1.2.4-1.9.1-.8-.3-.5-.6.6-.6 1.1-.1 1.7.2 1.3.5zm50 1.3c.1 1.1-.5 2.2-1.3 2.5-1.7.6-1.8.1-.4-2.5 1.3-2.4 1.5-2.4 1.7 0zm458.8-.9c.3.5.1 1-.4 1-.6 0-1.1-.5-1.1-1 0-.6.2-1 .4-1 .3 0 .8.4 1.1 1zm8-.1c-.3.5.2 1.7 1.1 2.5 1.2 1.2 1.2 1.6.2 1.6-1.5 0-4-3.5-3.1-4.4 1-1 2.5-.7 1.8.3zM69.5 98c.3.5.1 1-.4 1-.6 0-1.1-.5-1.1-1 0-.6.2-1 .4-1 .3 0 .8.4 1.1 1zM342 99.7c0 1.2-.3 1.3-1.3.4-.8-.6-1.8-.7-2.3-.3-.4.4-.2-.1.5-1 1.5-2 3.1-1.5 3.1.9zm36.7-2.1c-.3.3-1.2.4-1.9.1-.8-.3-.5-.6.6-.6 1.1-.1 1.7.2 1.3.5zM146 99.5c.7.9.8 1.5.2 1.5-.5 0-1.2-.7-1.6-1.5-.3-.8-.4-1.5-.2-1.5s.9.7 1.6 1.5zm185-1.1c0 .3-.4.8-1 1.1-.5.3-1 .1-1-.4 0-.6.5-1.1 1-1.1.6 0 1 .2 1 .4zm251 .1c0 .2-.7.8-1.5 1.5-1.2 1-1.5 1-1.5-.2 0-.8.7-1.5 1.5-1.5s1.5.1 1.5.2zm-515 .9c0 .2-.7.7-1.6 1-.8.3-1.2.2-.9-.4.6-1 2.5-1.4 2.5-.6zm181.6.8c.4.7.3.8-.4.4s-1.2-.2-1.2.4c0 .6-.4.8-1 .5-.5-.3-1-1-1-1.6 0-1.3 2.7-1.1 3.6.3zm10.7 1.9c.4 1.6.3 1.8-.9.8-.7-.6-1.1-1.5-.8-2 .8-1.3 1.1-1.1 1.7 1.2zM299 101c0 .5-.8 1-1.7 1-1.5 0-1.6-.2-.3-1 1.9-1.2 2-1.2 2 0zm156.7 1.2c-.3.8-.6.5-.6-.6-.1-1.1.2-1.7.5-1.3.3.3.4 1.2.1 1.9zm-120.2-.2c.3.6-.1.7-.9.4-1.8-.7-2.1-1.4-.7-1.4.6 0 1.3.4 1.6 1zM68 104.1c0 .6-.4.7-1 .4-.5-.3-1-1.1-1-1.6 0-.6.5-.7 1-.4.6.3 1 1.1 1 1.6zm64-1.7c0 .9-3 1.4-3.5.6-.4-.6.3-1 1.4-1 1.2 0 2.1.2 2.1.4zm15.9-.1c-.2.1-1.2.9-2.1 1.6-1.5 1.2-1.8 1.1-1.8-.3 0-1 .8-1.6 2.2-1.6 1.2 0 1.9.1 1.7.3zm115.4 1.2c.4.8.2 1.7-.3 2-.6.4-1-.3-1-1.4 0-2.5.6-2.7 1.3-.6zm18.6-.1c.7.8.8 1.7.3 2-.6.3-1.2-.3-1.5-1.4-.6-2.4-.4-2.5 1.2-.6zm161.8.1c0 .8-.4 1.2-.9.9-.5-.3-.6-1-.3-1.5.9-1.3 1.2-1.1 1.2.6zm-363.7.4c0 .6-.4 1.3-1 1.6-.5.3-1-.1-1-.9 0-.9.5-1.6 1-1.6.6 0 1 .4 1 .9zm13 .1c0 .5-.5 1-1.1 1-.5 0-.7-.5-.4-1 .3-.6.8-1 1.1-1 .2 0 .4.4.4 1zm48 .4c0 .3-.4.8-1 1.1-.5.3-1 .1-1-.4 0-.6.5-1.1 1-1.1.6 0 1 .2 1 .4zm132.4 1.7c-.8 1.4-2.4 1-2.4-.6 0-.9.6-1.2 1.5-.9.8.4 1.2 1 .9 1.5zm3.6-1.1c0 .5-.5 1-1.1 1-.5 0-.7-.5-.4-1 .3-.6.8-1 1.1-1 .2 0 .4.4.4 1zm142.5 15.9c-.3.6-1.1 1.1-1.6 1.1s-.4-.6.3-1.4c1.4-1.6 2.4-1.3 1.3.3zm169.6 106.4c-1 .9-1.1.8-.5-.6.3-1 .9-1.5 1.2-1.2.3.3 0 1.1-.7 1.8zM433 229c0 .5-.5 1-1.1 1-.5 0-.7-.5-.4-1 .3-.6.8-1 1.1-1 .2 0 .4.4.4 1zM35.6 282.6c-.3.9-.6 2.1-.7 2.7 0 .7-.4.3-.8-.8-.9-2.2-.5-3.5 1.1-3.5.5 0 .7.7.4 1.6zM421 307.4c0 .3-.4.8-1 1.1-.5.3-1 .1-1-.4 0-.6.5-1.1 1-1.1.6 0 1 .2 1 .4zm175.7 17.8c-.3.8-.6.5-.6-.6-.1-1.1.2-1.7.5-1.3.3.3.4 1.2.1 1.9zm-559.7.2c0 .2-.7.7-1.6 1-.8.3-1.2.2-.9-.4.6-1 2.5-1.4 2.5-.6zm670.5 3.4c-.3.3-1.1 0-1.8-.7-.9-1-.8-1.1.6-.5 1 .3 1.5.9 1.2 1.2zm-105 78.2c-.3.5-1.2 1-1.8 1-.7 0-.6-.4.3-1 1.9-1.2 2.3-1.2 1.5 0zm-1.7 26.9c.1 1.8-.3 3.1-1.3 3.5-.8.3-1.2 1.2-.9 2 .3.8.1 1.6-.4 2-1 .6-.9-2 .2-4.6.4-.9.9-2.5 1.1-3.5.4-2.3.4-2.3.8-2.3.1 0 .4 1.3.5 2.9zm1.7 9.2c-.1 2.1-5.5 6-5.5 4 0-.5.5-1.3 1-1.6.6-.4.8-1 .5-1.5-.3-.5-.1-1.1.5-1.5.5-.3 1 0 1 .7 0 .8.5.6 1.1-.5 1.3-2.2 1.6-2.2 1.4.4zm-1.1 5.8c.3.4-.7 1.9-2.2 3.2l-2.7 2.4 2.3-2.6c1.8-2 2-2.8 1-3.2-.9-.4-.9-.6-.1-.6.6-.1 1.4.3 1.7.8zm-1.4 19.2c0 .5-.4.9-1 .9-.5 0-1-.7-1-1.6 0-.8.5-1.2 1-.9.6.3 1 1 1 1.6zm-373.3 3.5c-.3.3-1.2.4-1.9.1-.8-.3-.5-.6.6-.6 1.1-.1 1.7.2 1.3.5zM175 495.4c0 .3-.4.8-1 1.1-.5.3-1 .1-1-.4 0-.6.5-1.1 1-1.1.6 0 1 .2 1 .4zM46.5 514c-.3.5-1 1-1.6 1-.5 0-.9-.5-.9-1 0-.6.7-1 1.6-1 .8 0 1.2.4.9 1zm290.9 52.8c.3.5-.1.9-.9.9s-1.2-.4-.9-.9c.3-.4.7-.8.9-.8.2 0 .6.4.9.8zM605 606.4c0 .2-.7.7-1.6 1-.8.3-1.2.2-.9-.4.6-1 2.5-1.4 2.5-.6zm-4.3 1.2c-.3.3-1.2.4-1.9.1-.8-.3-.5-.6.6-.6 1.1-.1 1.7.2 1.3.5zm-9.9 5.9c-.3.3-.9-.2-1.2-1.2-.6-1.4-.5-1.5.5-.6.7.7 1 1.5.7 1.8zm-87.9.8c.9-.4 1.3-.3 1 .1-.4.4-1.6.8-2.8 1.1-1.4.3-2.1-.1-2.1-1.3s.3-1.3 1.1-.5c.6.6 1.9.9 2.8.6zm-415.2 2.9c-.3.8-.6.5-.6-.6-.1-1.1.2-1.7.5-1.3.3.3.4 1.2.1 1.9zm487.3-.6c0 .8-.5 1.2-1 .9-.6-.4-.8-1.1-.5-1.6.9-1.4 1.5-1.1 1.5.7zm11 .4c0 .5-.2 1-.4 1-.3 0-.8-.5-1.1-1-.3-.6-.1-1 .4-1 .6 0 1.1.4 1.1 1zm-484 2.1c0 .6-.4.7-1 .4-.5-.3-1-1.1-1-1.6 0-.6.5-.7 1-.4.6.3 1 1.1 1 1.6zm30.8 1.4c-.3.3-.9-.2-1.2-1.2-.6-1.4-.5-1.5.5-.6.7.7 1 1.5.7 1.8zM87 619.4c0 .2-.9.6-2 .9-1.1.3-1.8.1-1.4-.4.5-.9 3.4-1.3 3.4-.5zm23 0c0 .2-.7.7-1.6 1-.8.3-1.2.2-.9-.4.6-1 2.5-1.4 2.5-.6zm216.9 5.9c0 .9-.2.8-.6-.1-.2-.6-1-.9-1.5-.6-.7.4-.8.2-.4-.5.9-1.3 2.6-.5 2.5 1.2zm-30.9.7c0 .5-.2 1-.4 1-.3 0-.8-.5-1.1-1-.3-.6-.1-1 .4-1 .6 0 1.1.4 1.1 1z"/><path fill="white" d="M201.1 102.6c1.4 1.7 3.2 1.9 2.7.2-.2-.6-1.2-1.2-2.2-1.4-1.4-.2-1.5 0-.5 1.2zM363.6 102.2c.3.5 1 .6 1.5.3 1.3-.9 1.1-1.2-.6-1.2-.8 0-1.2.4-.9.9zM45 114.1c0 .5.5.7 1 .4.6-.3 1-.8 1-1.1 0-.2-.4-.4-1-.4-.5 0-1 .5-1 1.1zM130.3 198.9c-.8.5-1.5 4.2-4 19.1-1.2 7.2-.9 36.8.5 38.2.6.6 1.2 1.8 1.2 2.5 0 .6 1.1 2.4 2.5 3.8 2.8 2.7 4.1 3.3 2.9 1.2-.4-.6.2-.4 1.3.5 1.1 1 3.1 1.8 4.6 1.8 1.4 0 3.3-.8 4.3-1.8 1-.9 2.1-1.8 2.6-1.8.4-.1 1.3-.2 1.9-.3.6 0 .8-.8.5-1.7-.4-.9-.1-2.3.5-3 .9-1.1.8-1.8-.2-3-1.1-1.4-1-1.8 1-3.3 2.4-1.8 3.4-6.6 2-9.2-.5-1-.4-2 .3-2.7.9-.9.9-1.2 0-1.2s-.9-.4-.1-1.9c.7-1.1.9-2.6.4-3.7-.4-1.1-.7-3.6-.6-5.6.2-2-.2-4.6-.8-5.7-.8-1.4-.8-2.2 0-2.7 2.6-1.6-1.2-16.4-4.3-16.4-.5 0-.7-.4-.3-.9.8-1.4-14.4-3.5-16.2-2.2zM260.6 201.2c-4.8 2.7-8 7.1-9 12.3-.2 1.1-.9 3.3-1.5 4.8-1.6 4-1.5 9 .2 8.1.9-.6.9-.5 0 .7-.7.8-.8 2-.4 2.8.5.8.3 2.4-.5 4-1.6 3.1-1.8 8.2-.4 13.1.5 1.8.6 3.6.2 3.9-1.2 1-1.5 4.4-.3 3.6 1.5-.9 1.4.8-.1 2.3-.7.7-.8 1.2-.2 1.2.5 0 1 .8 1.1 1.7.6 6.8 1.9 9.1 5.3 9.4 3.3.3 7.6-.3 8.6-1.2.6-.5 1.4-.6 1.7-.2.4.3.7.2.7-.4 0-1.3 3.7-5.5 4.4-5.1 1 .5 3.6-5.3 3.6-8.1 0-1.5.4-3.1.9-3.7 1.8-1.9 2.9-10.9 2.8-23.5-.1-7.1-.5-12.9-.9-12.9s-.3-1.2.3-2.7c.8-2.1.7-2.8-.6-3.5-.8-.5-1.5-1.5-1.5-2.3 0-.8-2.1-2.3-4.6-3.5-3.8-1.6-5-1.8-6.2-.8-1.3 1-1.4 1-.8 0 .9-1.5-.3-1.5-2.8 0zM429.5 251c-.3.5-.1 1 .4 1 .6 0 1.1-.5 1.1-1 0-.6-.2-1-.4-1-.3 0-.8.4-1.1 1zM235.6 340.2c-.9.5-1.4 1.3-1.1 1.7.2.5-.4 1.1-1.5 1.4-1.1.3-2.5 1.8-3.2 3.4-1.2 2.6-6.3 8.3-7.5 8.3-.3 0-1.8 1.1-3.5 2.5-1.6 1.3-4.8 3-7.1 3.7-2.3.7-4.8 1.8-5.5 2.5-.8.7-1.8 1.1-2.3.8-.5-.4-.9.2-.9 1.1 0 1.3-.3 1.5-1.1.7-1.2-1.2-4.9-.6-4.9.9 0 .5-.9.4-2-.2-1.4-.7-2-.7-2 0 0 1.4-3.3 1.3-4.8-.2-.8-.8-1.8-.9-3.4-.1-2.4 1.1-5.2 1-8-.1-.9-.4-2.1-.5-2.6-.2-.6.3-1.3-.1-1.6-1-.4-.9-.9-1.4-1.3-1.1-.6.7-5.9-1.8-7.9-3.7-.7-.6-2.6-2.2-4.3-3.5-1.7-1.3-3.1-2.9-3.1-3.7 0-.8-.4-1.4-1-1.4-.5 0-.7-.7-.4-1.5.4-.9.1-1.5-.7-1.5-1 0-1-.3-.1-1.2 2.1-2.1 1.3-3.7-2.8-5.7-2.2-1-4-1.5-4-1s-.7.9-1.5.9c-1.6 0-2.7 3.3-2.2 7 .6 4.1 1.8 6 3.8 6 1.2 0 1.9.7 1.9 1.9 0 1.1 1.2 2.9 2.8 4.1 1.8 1.4 2.3 2.3 1.4 2.7-2.6 1.1 12 9.5 18.8 10.9 1.9.3 3.9.9 4.4 1.2 1.3.7 4.7 1.1 11.6 1.2 4 .1 5 .4 3.5 1-1.8.8-1.8.9.6.9 1.4.1 2.9-.2 3.2-.6.4-.3 2.5-.7 4.8-.9 2.3-.2 4.7-.8 5.5-1.5.8-.6 1.4-.7 1.4-.2 0 .5.7 1 1.5 1s1.5-.5 1.5-1 .8-.7 1.8-.5c1 .3 2.3-.1 3-.8.7-.7 1.8-1.1 2.5-.8.8.3 1.9-.2 2.6-1 .7-.8 1.9-1.2 2.7-.9.8.3 1.4-.1 1.4-1.1 0-.9.6-1.3 1.4-1 .7.3 1.6-.2 1.9-1 .4-1 1.3-1.3 2.3-.9 1.2.4 1.5.3 1-.5-.4-.8.2-1.6 1.8-2.2 1.4-.5 3-1.8 3.6-3 .6-1.1 1.7-2 2.6-2 1.6 0 3.5-3.9 2.6-5.4-.3-.5 0-.6.6-.2.7.4 1.2.2 1.2-.3 0-.6.4-1 .9-.9.5.2.9-.1.9-.5.1-.5.8-1.5 1.8-2.2 2.3-1.6 2.7-4.5.6-4.5-1.5 0-1.5-.2-.2-1 1.9-1.2 1.2-1.7-4.7-3.9-3.4-1.2-5.6-1.5-6.7-.9zM603.5 411.1c-.4.6-.5 1.2-.2 1.5.2.3.7-.2 1-1.1.7-1.7.1-2-.8-.4zM594 470c-1.3.8-1.2 1 .3 1 .9 0 1.7-.5 1.7-1 0-1.2-.1-1.2-2 0zM337 542c0 1.8.3 1.9 2 1 2.2-1.2 1.8-3-.6-3-.8 0-1.4.9-1.4 2zM139.1 612.3c.9.7 1.4 1.8 1.1 2.5-.3.9.4.7 1.7-.4 2.5-2.2 2.6-2.5.7-1.8-.8.3-1.7.1-2.1-.5-.3-.6-1.2-1.1-1.8-1.1-.7.1-.6.5.4 1.3zM54.5 619c-.3.5-.2 1 .4 1 .5 0 1.3-.5 1.6-1 .3-.6.2-1-.4-1-.5 0-1.3.4-1.6 1z"/></svg>